<?xml version="1.0" encoding="UTF-8" standalone="no"?>
<svg
   xmlns:dc="http://purl.org/dc/elements/1.1/"
   xmlns:cc="http://creativecommons.org/ns#"
   xmlns:rdf="http://www.w3.org/1999/02/22-rdf-syntax-ns#"
   xmlns:svg="http://www.w3.org/2000/svg"
   xmlns="http://www.w3.org/2000/svg"
   viewBox="0 0 1066.6667 800"
   height="400"
   width="500"
   xml:space="preserve"
   id="svg2"
   version="1.1"><metadata
     id="metadata8"><rdf:RDF><cc:Work
         rdf:about=""><dc:format>image/svg+xml</dc:format><dc:type
           rdf:resource="http://purl.org/dc/dcmitype/StillImage" /></cc:Work></rdf:RDF></metadata><defs
     id="defs6"><clipPath
       id="clipPath18"
       clipPathUnits="userSpaceOnUse"><path
         id="path16"
         d="M 0,600 H 800 V 0 H 0 Z" /></clipPath><clipPath
       id="clipPath34"
       clipPathUnits="userSpaceOnUse"><path
         id="path32"
         d="M 91.428,67.315 H 708.571 V 532.686 H 91.428 Z" /></clipPath><clipPath
       id="clipPath114"
       clipPathUnits="userSpaceOnUse"><path
         id="path112"
         d="m 237.91,436.859 c 0,-48.73 39.503,-88.233 88.233,-88.233 v 0 c 48.729,0 88.233,39.503 88.233,88.233 v 0 c 0,48.73 -39.504,88.232 -88.233,88.232 v 0 c -48.73,0 -88.233,-39.502 -88.233,-88.232" /></clipPath><clipPath
       id="clipPath258"
       clipPathUnits="userSpaceOnUse"><path
         id="path256"
         d="M 91.428,67.315 H 708.571 V 532.686 H 91.428 Z" /></clipPath></defs><g
     transform="matrix(1.3333333,0,0,-1.3333333,0,800)"
     id="g10"><g
       id="g12"><g
         clip-path="url(#clipPath18)"
         id="g14"><g
           transform="translate(343.4414,411.708)"
           id="g20"><path
             id="path22"
             style="fill:#ececec;fill-opacity:1;fill-rule:nonzero;stroke:none"
             d="m 0,0 c -119.329,-84.947 -250.692,-36.181 -225.837,-152.59 33.178,-155.387 439.233,-278.105 548.711,10.22 C 406.431,77.689 201.254,143.268 0,0" /></g><g
           transform="translate(285.999,428.312)"
           id="g24"><path
             id="path26"
             style="fill:#ececec;fill-opacity:1;fill-rule:nonzero;stroke:none"
             d="M 0,0 C -125.816,-71.147 -188.13,-27.762 -136.479,47.004 -84.828,121.771 124.157,70.208 0,0" /></g></g></g><g
       id="g28"><g
         clip-path="url(#clipPath34)"
         id="g30"><g
           transform="translate(210.8037,489.2881)"
           id="g36"><path
             id="path38"
             style="fill:none;stroke:#aebfc4;stroke-width:1;stroke-linecap:butt;stroke-linejoin:miter;stroke-miterlimit:10;stroke-dasharray:none;stroke-opacity:1"
             d="m 0,0 v -249.629 c 0,-6.15 4.985,-11.135 11.135,-11.135 h 410.208 c 6.149,0 11.135,4.985 11.135,11.135 V 0 c 0,6.149 -4.986,11.135 -11.135,11.135 H 11.135 C 4.985,11.135 0,6.149 0,0 Z" /></g><g
           transform="translate(210.8037,471.4717)"
           id="g40"><path
             id="path42"
             style="fill:none;stroke:#aebfc4;stroke-width:1;stroke-linecap:butt;stroke-linejoin:miter;stroke-miterlimit:10;stroke-dasharray:none;stroke-opacity:1"
             d="M 0,0 H 432.478" /></g><g
           transform="translate(569.252,492.6875)"
           id="g44"><path
             id="path46"
             style="fill:none;stroke:#aebfc4;stroke-width:1;stroke-linecap:butt;stroke-linejoin:miter;stroke-miterlimit:10;stroke-dasharray:none;stroke-opacity:1"
             d="m 0,0 c -3.328,0 -6.025,-2.698 -6.025,-6.026 0,-3.328 2.697,-6.025 6.025,-6.025 3.328,0 6.025,2.697 6.025,6.025 C 6.025,-2.698 3.328,0 0,0 Z" /></g><g
           transform="translate(593.749,492.6875)"
           id="g48"><path
             id="path50"
             style="fill:none;stroke:#aebfc4;stroke-width:1;stroke-linecap:butt;stroke-linejoin:miter;stroke-miterlimit:10;stroke-dasharray:none;stroke-opacity:1"
             d="m 0,0 c -3.328,0 -6.026,-2.698 -6.026,-6.026 0,-3.328 2.698,-6.025 6.026,-6.025 3.328,0 6.025,2.697 6.025,6.025 C 6.025,-2.698 3.328,0 0,0 Z" /></g><g
           transform="translate(618.2461,492.6875)"
           id="g52"><path
             id="path54"
             style="fill:none;stroke:#aebfc4;stroke-width:1;stroke-linecap:butt;stroke-linejoin:miter;stroke-miterlimit:10;stroke-dasharray:none;stroke-opacity:1"
             d="m 0,0 c -3.328,0 -6.026,-2.698 -6.026,-6.026 0,-3.328 2.698,-6.025 6.026,-6.025 3.327,0 6.025,2.697 6.025,6.025 C 6.025,-2.698 3.327,0 0,0 Z" /></g><g
           transform="translate(642.5469,323.6235)"
           id="g56"><path
             id="path58"
             style="fill:#1f4068;fill-opacity:1;fill-rule:nonzero;stroke:none"
             d="m 0,0 c -7.147,0 -12.942,5.795 -12.942,12.943 0,7.148 5.795,12.942 12.942,12.942 7.148,0 12.942,-5.794 12.942,-12.942 C 12.942,5.795 7.148,0 0,0 m 29.688,12.943 c 0,2.902 -0.423,5.703 -1.2,8.354 l 5.906,5.203 -5.457,9.45 -7.466,-2.516 C 17.61,37.478 12.623,40.432 7.01,41.791 L 5.456,49.507 H -5.455 l -1.554,-7.716 c -5.614,-1.359 -10.601,-4.313 -14.462,-8.357 l -7.466,2.516 -5.457,-9.45 5.906,-5.203 c -0.776,-2.651 -1.199,-5.452 -1.199,-8.354 0,-2.902 0.423,-5.704 1.199,-8.355 l -5.906,-5.203 5.457,-9.449 7.466,2.515 c 3.861,-4.043 8.848,-6.997 14.462,-8.357 l 1.554,-7.716 H 5.456 l 1.554,7.716 c 5.613,1.36 10.6,4.314 14.461,8.357 l 7.466,-2.515 5.457,9.449 -5.906,5.203 c 0.777,2.651 1.2,5.453 1.2,8.355" /></g><g
           transform="translate(642.5469,356.3071)"
           id="g60"><path
             id="path62"
             style="fill:none;stroke:#ffffff;stroke-width:1;stroke-linecap:butt;stroke-linejoin:miter;stroke-miterlimit:10;stroke-dasharray:none;stroke-opacity:1"
             d="m 0,0 c -10.902,0 -19.741,-8.838 -19.741,-19.741 0,-10.903 8.839,-19.741 19.741,-19.741 10.903,0 19.741,8.838 19.741,19.741 C 19.741,-8.838 10.903,0 0,0 Z" /></g><g
           transform="translate(116.7188,238.5366)"
           id="g64"><path
             id="path66"
             style="fill:#5c7c0e;fill-opacity:1;fill-rule:nonzero;stroke:none"
             d="m 0,0 c 0,0 3.861,-20.292 8.979,-25.141 5.119,-4.849 24.03,-1.616 24.03,-1.616 z" /></g><g
           transform="translate(172.3887,162.3945)"
           id="g68"><path
             id="path70"
             style="fill:#76a21e;fill-opacity:1;fill-rule:nonzero;stroke:none"
             d="m 0,0 c 0,0 -5.207,42.381 -10.056,49.923 -2.549,3.966 -45.614,26.219 -45.614,26.219 0,0 6.668,-12.557 17.24,-26.937 C -25.294,31.337 -12.686,41.413 -9.338,38.071 -5.99,34.729 -1.795,0 -1.795,0 Z" /></g><g
           transform="translate(147.3467,269.686)"
           id="g72"><path
             id="path74"
             style="fill:#5c7c0e;fill-opacity:1;fill-rule:nonzero;stroke:none"
             d="m 0,0 c 0.541,4.059 3.825,15.901 3.825,15.901 0,0 4.53,-25.541 11.583,-50.373 0,0 -17.404,19.5 -15.408,34.472" /></g><g
           transform="translate(172.9014,162.3945)"
           id="g76"><path
             id="path78"
             style="fill:#76a21e;fill-opacity:1;fill-rule:nonzero;stroke:none"
             d="m 0,0 c 0,0 -0.539,53.156 -3.053,62.135 -2.514,8.979 -22.502,45.157 -22.502,45.157 0,0 -3.563,-21.853 -2.639,-28.995 C -26.35,64.041 -5.163,56.658 -3.816,54.099 -2.47,51.54 -1.526,0 -1.526,0 Z" /></g><g
           transform="translate(169.1787,162.3945)"
           id="g80"><path
             id="path82"
             style="fill:#76a21e;fill-opacity:1;fill-rule:nonzero;stroke:none"
             d="m 0,0 c 0,0 8.207,53.425 8.207,56.119 0,2.694 -5.388,26.937 0,39.059 5.388,12.121 22.357,33.671 22.357,33.671 0,0 2.695,-27.475 0,-40.406 C 27.871,75.514 10.596,57.466 10.209,55.042 9.823,52.617 2.281,0 2.281,0 Z" /></g><g
           transform="translate(222.3779,258.3804)"
           id="g84"><path
             id="path86"
             style="fill:#5c7c0e;fill-opacity:1;fill-rule:nonzero;stroke:none"
             d="m 0,0 c 0,0 1.189,-16.162 -0.427,-23.435 -1.616,-7.273 -21.01,-12.661 -21.01,-12.661 0,0 17.935,22.897 21.437,36.096" /></g><g
           transform="translate(171.5791,162.3945)"
           id="g88"><path
             id="path90"
             style="fill:#76a21e;fill-opacity:1;fill-rule:nonzero;stroke:none"
             d="m 0,0 c 0,0 6.189,44.805 12.254,54.233 6.063,9.429 19.802,18.048 25.188,23.435 5.388,5.388 13.357,18.318 13.357,18.318 0,0 -3.659,-23.166 -7.969,-32.863 C 38.521,53.425 17.093,51.725 13.738,51.001 10.384,50.277 1.886,0 1.886,0 Z" /></g><g
           transform="translate(151.0947,195.2876)"
           id="g92"><path
             id="path94"
             style="fill:#1b1b2f;fill-opacity:1;fill-rule:nonzero;stroke:none"
             d="m 0,0 2.292,-30.464 c 0.379,-5.04 4.578,-8.935 9.632,-8.935 h 20.973 c 5.054,0 9.253,3.895 9.632,8.935 L 44.821,0 Z" /></g><g
           transform="translate(174.8574,155.8882)"
           id="g96"><path
             id="path98"
             style="fill:#0e0e1c;fill-opacity:1;fill-rule:nonzero;stroke:none"
             d="m 0,0 h 9.135 c 5.053,0 9.253,3.896 9.632,8.936 l 2.292,30.463 H 12.978 C 10.699,29.564 6.285,12.923 0,0" /></g><g
           transform="translate(326.1426,530.1245)"
           id="g100"><path
             id="path102"
             style="fill:none;stroke:#d8e1e5;stroke-width:1;stroke-linecap:butt;stroke-linejoin:miter;stroke-miterlimit:10;stroke-dasharray:none;stroke-opacity:1"
             d="m 0,0 c -51.509,0 -93.266,-41.756 -93.266,-93.266 0,-51.509 41.757,-93.265 93.266,-93.265 51.51,0 93.266,41.756 93.266,93.265 C 93.266,-41.756 51.51,0 0,0 Z" /></g><g
           transform="translate(326.1426,525.0913)"
           id="g104"><path
             id="path106"
             style="fill:#d8e1e5;fill-opacity:1;fill-rule:nonzero;stroke:none"
             d="m 0,0 c -48.729,0 -88.232,-39.503 -88.232,-88.232 0,-48.73 39.503,-88.233 88.232,-88.233 48.729,0 88.233,39.503 88.233,88.233 C 88.233,-39.503 48.729,0 0,0" /></g></g></g><g
       id="g108"><g
         clip-path="url(#clipPath114)"
         id="g110"><g
           transform="translate(250.7295,378.2549)"
           id="g116"><path
             id="path118"
             style="fill:#1b1b2f;fill-opacity:1;fill-rule:nonzero;stroke:none"
             d="M 0,0 C -2.56,-3.967 23.142,-19.658 34.837,-12.442 L 24.811,9.914 C 24.811,9.914 4.978,7.714 0,0" /></g><g
           transform="translate(259.2168,374.5825)"
           id="g120"><path
             id="path122"
             style="fill:#ff8f6a;fill-opacity:1;fill-rule:nonzero;stroke:none"
             d="m 0,0 c 0.303,3.617 13.579,47.309 23.821,58.088 0,0 9.351,-14.276 8.802,-32.604 L 13.908,-13.497 Z" /></g><g
           transform="translate(353.0156,482.0781)"
           id="g124"><path
             id="path126"
             style="fill:#d74015;fill-opacity:1;fill-rule:nonzero;stroke:none"
             d="m 0,0 c 0,0 0.249,-8.08 -0.622,-11.782 -0.87,-3.702 -4.45,-10.607 -4.45,-10.607 l 3.323,-14.077 13.942,1.697 c 0,0 4,14.93 2.809,21.4 z" /></g><g
           transform="translate(334.5,478.8755)"
           id="g128"><path
             id="path130"
             style="fill:#1a1c1c;fill-opacity:1;fill-rule:nonzero;stroke:none"
             d="m 0,0 21.033,-25.066 c 0.696,-0.829 1.932,-0.937 2.761,-0.242 l 10.913,9.158 c 0.829,0.695 0.937,1.931 0.241,2.76 L 13.915,11.676 c -0.695,0.829 -1.932,0.938 -2.761,0.242 L 0.241,2.761 C -0.588,2.065 -0.695,0.829 0,0" /></g><g
           transform="translate(357.0352,454.271)"
           id="g132"><path
             id="path134"
             style="fill:none;stroke:#ffffff;stroke-width:1;stroke-linecap:butt;stroke-linejoin:miter;stroke-miterlimit:10;stroke-dasharray:none;stroke-opacity:1"
             d="m 0,0 c -0.237,0 -0.46,0.104 -0.612,0.285 l -21.034,25.066 c -0.283,0.337 -0.239,0.842 0.099,1.125 l 10.912,9.157 c 0.185,0.155 0.381,0.187 0.513,0.187 0.237,0 0.46,-0.104 0.612,-0.285 L 11.523,10.468 C 11.66,10.305 11.726,10.098 11.707,9.886 11.688,9.673 11.589,9.48 11.425,9.343 L 0.512,0.187 C 0.328,0.032 0.132,0 0,0 Z" /></g><g
           transform="translate(358.3691,478.6895)"
           id="g136"><path
             id="path138"
             style="fill:#ff8f6a;fill-opacity:1;fill-rule:nonzero;stroke:none"
             d="M 0,0 C 0,0 1.341,4.034 -5.179,6.171 -11.698,8.309 -11.071,4.009 0,0" /></g><g
           transform="translate(354.2607,477.9043)"
           id="g140"><path
             id="path142"
             style="fill:#ff8f6a;fill-opacity:1;fill-rule:nonzero;stroke:none"
             d="m 0,0 c 0.653,1.079 5.723,1.684 7.838,0.785 2.115,-0.898 0.622,-3.357 0.622,-3.357 0,0 3.234,0.694 3.234,-3.152 0,0 3.223,-2.322 1.612,-4.452 -1.612,-2.13 -5.966,-3.996 -7.085,-3.623 -1.12,0.374 3.732,5.91 3.732,5.91 0,0 -5.35,-0.81 -7.465,-0.28 -2.115,0.53 4.274,4.921 4.274,4.921 0,0 -8.504,0.374 -6.762,3.248" /></g><g
           transform="translate(354.9912,441.2959)"
           id="g144"><path
             id="path146"
             style="fill:#ff8f6a;fill-opacity:1;fill-rule:nonzero;stroke:none"
             d="m 0,0 c 0,0 -8.701,11.569 -10.692,14.981 -1.991,3.413 -2.06,12.993 -2.087,16.352 -0.029,3.359 4.202,-2.802 4.7,-6.502 0.497,-3.701 1.031,-6.437 1.031,-6.437 0,0 7.59,-5.88 17.266,-12.381 z" /></g><g
           transform="translate(361.4814,463.1367)"
           id="g148"><path
             id="path150"
             style="fill:none;stroke:#ffffff;stroke-width:1;stroke-linecap:butt;stroke-linejoin:miter;stroke-miterlimit:10;stroke-dasharray:none;stroke-opacity:1"
             d="m 0,0 c -0.768,0 -1.391,-0.623 -1.391,-1.391 0,-0.769 0.623,-1.391 1.391,-1.391 0.769,0 1.392,0.622 1.392,1.391 C 1.392,-0.623 0.769,0 0,0 Z" /></g><g
           transform="translate(306.8447,440.3213)"
           id="g152"><path
             id="path154"
             style="fill:#e43f5a;fill-opacity:1;fill-rule:nonzero;stroke:none"
             d="m 0,0 c 0,0 -10.285,-1.136 -23.807,-7.651 0,0 7.381,-42.72 5.515,-54.664 -1.866,-11.944 -4.401,-38.975 -4.401,-38.975 0,0 19.414,-11.558 38.035,-9.433 18.621,2.124 35.874,13.82 41.43,13.571 0,0 -4.758,73.193 -13.915,92.566 0,0 -7.77,1.834 -16.544,2.472 z" /></g><g
           transform="translate(333.1582,438.2075)"
           id="g156"><path
             id="path158"
             style="fill:#ff8f6a;fill-opacity:1;fill-rule:nonzero;stroke:none"
             d="m 0,0 c 0,0 -3.35,14.142 -3.033,29.418 l -18.57,8.228 c 0,0 1.179,-23.619 -4.71,-35.532 0,0 19.908,-16.314 26.313,-2.114" /></g><g
           transform="translate(330.125,467.626)"
           id="g160"><path
             id="path162"
             style="fill:#d74015;fill-opacity:1;fill-rule:nonzero;stroke:none"
             d="M 0,0 -17.142,7.595 -17.386,4.4 c 0,0 1.734,-15.806 18.895,-25.576 C 0.672,-15.668 -0.166,-7.991 0,0" /></g><g
           transform="translate(307.8096,491.2822)"
           id="g164"><path
             id="path166"
             style="fill:#ff8f6a;fill-opacity:1;fill-rule:nonzero;stroke:none"
             d="M 0,0 C 4.398,15.001 32.614,18.03 34.037,-3.337 34.789,-14.634 37.135,-33.502 27.022,-35.74 16.911,-37.977 -6.409,-21.856 0,0" /></g><g
           transform="translate(328.4971,482.9546)"
           id="g168"><path
             id="path170"
             style="fill:#1a1c1c;fill-opacity:1;fill-rule:nonzero;stroke:none"
             d="m 0,0 c -0.446,0.027 -0.841,-0.522 -0.883,-1.227 -0.042,-0.704 0.285,-1.296 0.732,-1.323 0.445,-0.026 0.84,0.523 0.882,1.227 C 0.773,-0.619 0.446,-0.026 0,0" /></g><g
           transform="translate(338.1162,482.3823)"
           id="g172"><path
             id="path174"
             style="fill:#1a1c1c;fill-opacity:1;fill-rule:nonzero;stroke:none"
             d="m 0,0 c -0.446,0.027 -0.842,-0.522 -0.884,-1.227 -0.041,-0.704 0.286,-1.296 0.732,-1.323 0.446,-0.027 0.841,0.523 0.883,1.227 C 0.773,-0.619 0.445,-0.026 0,0" /></g><g
           transform="translate(322.5967,484.835)"
           id="g176"><path
             id="path178"
             style="fill:#1a1c1c;fill-opacity:1;fill-rule:nonzero;stroke:none"
             d="m 0,0 c 0,0 4.079,1.627 7.575,0.858 0,0 -0.498,2.46 -1.358,2.574 C 5.356,3.545 0.953,2.997 0,0" /></g><g
           transform="translate(341.9707,486.1787)"
           id="g180"><path
             id="path182"
             style="fill:#d74015;fill-opacity:1;fill-rule:nonzero;stroke:none"
             d="m 0,0 c -0.044,0.604 -0.087,1.197 -0.124,1.766 -0.933,14.01 -13.386,17.532 -23.09,14.067 l 2.082,-3.912 c 0,0 1.044,-12.504 18.531,-7.372 0,0 0.533,-2.478 2.601,-4.549" /></g><g
           transform="translate(336.2168,484.8315)"
           id="g184"><path
             id="path186"
             style="fill:#1a1c1c;fill-opacity:1;fill-rule:nonzero;stroke:none"
             d="m 0,0 c 0,0 1.973,0.509 3.274,-0.565 0,0 -0.61,2.341 -1.866,2.728 C 0.151,2.549 0,0 0,0" /></g><g
           transform="translate(316.0723,509.1416)"
           id="g188"><path
             id="path190"
             style="fill:#1a1c1c;fill-opacity:1;fill-rule:nonzero;stroke:none"
             d="m 0,0 c 5.407,1.317 7.861,2.986 7.861,2.986 0,0 0.735,-2.864 -0.893,-3.733 0,0 8.894,5.976 15.247,1.494 6.875,-4.853 11.415,-3.516 11.415,-3.516 0,0 -1.056,-2.417 -3.42,-3.121 0,0 3.732,-4.064 2.364,-8.045 -1.369,-3.981 -3.857,-3.93 -4.479,-7.44 0,0 -5.166,2.215 -5.88,7.191 0,0 -1.265,-1.959 -0.568,-3.95 0,0 -11.718,-1.197 -16.88,7.092 0,0 -1.385,-8.166 -4.767,-9.013 0,0 1.515,-8.093 -0.937,-9.286 l -3.568,-13.844 c 0,0 -3.854,7.571 -10.448,14.865 -6.595,7.293 3.735,14.188 3.735,14.188 0,0 -2.491,0.944 -4.357,0.944 0,0 2.244,4.603 6.347,0.622 0,0 -3.338,9.506 9.228,12.566" /></g><g
           transform="translate(316.0723,478.6729)"
           id="g192"><path
             id="path194"
             style="fill:#ff8f6a;fill-opacity:1;fill-rule:nonzero;stroke:none"
             d="m 0,0 c 0,0 -7.341,9.515 -8.914,3.677 -1.128,-4.183 6.126,-9.884 6.126,-9.884 z" /></g><g
           transform="translate(313.8125,476.3535)"
           id="g196"><path
             id="path198"
             style="fill:none;stroke:#d74015;stroke-width:1;stroke-linecap:butt;stroke-linejoin:miter;stroke-miterlimit:10;stroke-dasharray:none;stroke-opacity:1"
             d="M 0,0 C 0,0 -3.9,8.464 -4.646,5.578 -5.394,2.691 -2.323,0.576 -2.323,0.576" /></g><g
           transform="translate(327.0361,477.9893)"
           id="g200"><path
             id="path202"
             style="fill:none;stroke:#d74015;stroke-width:1;stroke-linecap:butt;stroke-linejoin:miter;stroke-miterlimit:10;stroke-dasharray:none;stroke-opacity:1"
             d="M 0,0 C 0,0 -2.353,2.02 -5.799,2.225" /></g><g
           transform="translate(337.8574,478.0361)"
           id="g204"><path
             id="path206"
             style="fill:none;stroke:#d74015;stroke-width:1;stroke-linecap:butt;stroke-linejoin:miter;stroke-miterlimit:10;stroke-dasharray:none;stroke-opacity:1"
             d="M 0,0 C 0,0 1.416,0.892 3.024,1.202" /></g><g
           transform="translate(316.5244,484.835)"
           id="g208"><path
             id="path210"
             style="fill:#1a1c1c;fill-opacity:1;fill-rule:nonzero;stroke:none"
             d="m 0,0 c 0,0 0.396,-8.366 6.865,-13.927 0,0 0.822,1.78 3.647,2.277 2.823,0.498 8.804,-1.503 8.804,-1.503 0,0 4.494,3.673 6.784,0.784 2.289,-2.889 3.597,-16.699 -4.771,-18.566 -8.368,-1.866 -17.833,1.429 -19.818,7.807 0,0 1.256,13.504 -4.223,19.521 z" /></g><g
           transform="translate(336.627,468.6055)"
           id="g212"><path
             id="path214"
             style="fill:#ffffff;fill-opacity:1;fill-rule:nonzero;stroke:none"
             d="m 0,0 c 0,0 -6.149,0.865 -9.377,2.302 0,0 2.494,-9.394 9.377,-2.302" /></g><g
           transform="translate(349.7021,435.7354)"
           id="g216"><path
             id="path218"
             style="fill:#e43f5a;fill-opacity:1;fill-rule:nonzero;stroke:none"
             d="m 0,0 c 0,0 7.788,-2.239 16.492,-10.949 8.704,-8.709 26.703,-22.516 26.703,-22.516 0,0 -4.562,-25.26 -13.022,-26.006 -8.461,-0.747 -26.75,15.179 -26.75,15.179 0,0 -6.97,28.864 -3.423,44.292" /></g><g
           transform="translate(330.125,463.5112)"
           id="g220"><path
             id="path222"
             style="fill:none;stroke:#d74015;stroke-width:1;stroke-linecap:butt;stroke-linejoin:miter;stroke-miterlimit:10;stroke-dasharray:none;stroke-opacity:1"
             d="M 0,0 C 0,0 2.669,1.263 4.105,0" /></g><g
           transform="translate(378.4248,376.3408)"
           id="g224"><path
             id="path226"
             style="fill:#1b1b2f;fill-opacity:1;fill-rule:nonzero;stroke:none"
             d="M 0,0 C -3.249,0.257 -3.331,40.345 -3.331,40.345 L 14.473,25.93 C 14.473,25.93 12.042,-0.952 0,0" /></g><g
           transform="translate(334.5742,480.6353)"
           id="g228"><path
             id="path230"
             style="fill:none;stroke:#d74015;stroke-width:1;stroke-linecap:butt;stroke-linejoin:miter;stroke-miterlimit:10;stroke-dasharray:none;stroke-opacity:1"
             d="m 0,0 c 0,0 0.073,-4.88 3.756,-8.278 0,0 -2.761,-1.705 -4.979,0.297" /></g><g
           transform="translate(354.9912,441.2959)"
           id="g232"><path
             id="path234"
             style="fill:#ff8f6a;fill-opacity:1;fill-rule:nonzero;stroke:none"
             d="m 0,0 10.218,6.013 c 0,0 30.296,-41.125 31.144,-45.417 0.849,-4.291 1.911,-13.882 -3.456,-15.292 C 33.164,-55.94 26.377,-55.581 21.05,-47.483 18.452,-43.533 0,0 0,0" /></g><g
           transform="translate(359.582,386.6001)"
           id="g236"><path
             id="path238"
             style="fill:none;stroke:#a5213a;stroke-width:1;stroke-linecap:butt;stroke-linejoin:miter;stroke-miterlimit:10;stroke-dasharray:none;stroke-opacity:1"
             d="M 0,0 C 0,0 -1.557,25.649 -5.872,41.572" /></g><g
           transform="translate(283.0381,432.6704)"
           id="g240"><path
             id="path242"
             style="fill:#e43f5a;fill-opacity:1;fill-rule:nonzero;stroke:none"
             d="m 0,0 c 0,0 -4.687,-1.268 -15.139,-23.848 -5.725,-12.37 -17.17,-30.568 -17.17,-30.568 0,0 21.5,12.473 34.837,-12.441 0,0 6.968,22.65 6.221,36.457 C 8.003,-16.593 0,0 0,0" /></g><g
           transform="translate(285.0107,428.1724)"
           id="g244"><path
             id="path246"
             style="fill:none;stroke:#a5213a;stroke-width:1;stroke-linecap:butt;stroke-linejoin:miter;stroke-miterlimit:10;stroke-dasharray:none;stroke-opacity:1"
             d="M 0,0 C 0,0 13.245,-20.079 4.785,-45.325" /></g><g
           transform="translate(303.3711,437.4771)"
           id="g248"><path
             id="path250"
             style="fill:none;stroke:#a5213a;stroke-width:1;stroke-linecap:butt;stroke-linejoin:miter;stroke-miterlimit:10;stroke-dasharray:none;stroke-opacity:1"
             d="M 0,0 C 0,0 25.087,-20.404 33.75,0" /></g></g></g><g
       id="g252"><g
         clip-path="url(#clipPath258)"
         id="g254"><g
           transform="translate(301.6953,403.876)"
           id="g260"><path
             id="path262"
             style="fill:#ff8f6a;fill-opacity:1;fill-rule:nonzero;stroke:none"
             d="m 0,0 c 0,0 -28.518,-24.763 -42.479,-29.293 -3.012,-7.456 1.603,-17.938 13.411,-16.704 10.86,1.135 36.056,34.201 36.056,34.201 z" /></g><g
           transform="translate(301.6953,403.876)"
           id="g264"><path
             id="path266"
             style="fill:#d74015;fill-opacity:1;fill-rule:nonzero;stroke:none"
             d="m 0,0 c 0,0 -1.362,-1.183 -3.636,-3.078 1.098,-4.849 2.502,-12.331 2.57,-19.084 4.741,5.797 8.054,10.366 8.054,10.366 z" /></g><g
           transform="translate(298.4053,408.4404)"
           id="g268"><path
             id="path270"
             style="fill:#d74015;fill-opacity:1;fill-rule:nonzero;stroke:none"
             d="M 0,0 C 0,0 1.149,8.887 0.639,13.61 0.128,18.334 8.773,14.772 6.046,2.702 l -1.194,-5.62 z" /></g><g
           transform="translate(308.1387,390.7275)"
           id="g272"><path
             id="path274"
             style="fill:#ff8f6a;fill-opacity:1;fill-rule:nonzero;stroke:none"
             d="m 0,0 c -3.839,0.178 -4.653,3.344 -4.653,3.344 -5.292,1.281 -4.559,6.589 -4.559,6.589 0,0 -6.084,5.422 -3.118,8.522 7.845,8.198 10.494,16.837 12.33,14.492 2.513,-3.209 -4.485,-18.153 -4.485,-18.153 0,0 6.723,16.805 8.805,16.87 2.081,0.065 2.242,-8.147 -5.283,-20.475 0,0 5.181,16.525 7.434,14.562 C 11.296,21.546 0,0 0,0" /></g><g
           transform="translate(309.5771,399.9956)"
           id="g276"><path
             id="path278"
             style="fill:#ff8f6a;fill-opacity:1;fill-rule:nonzero;stroke:none"
             d="M 0,0 C 4.162,1.921 9.042,10.186 9.445,7.206 9.807,4.545 10.385,2.13 5.032,-3.578 L -0.65,-7.706 Z" /></g><g
           transform="translate(313.2666,416.0288)"
           id="g280"><path
             id="path282"
             style="fill:none;stroke:#d74015;stroke-width:1;stroke-linecap:butt;stroke-linejoin:miter;stroke-miterlimit:10;stroke-dasharray:none;stroke-opacity:1"
             d="M 0,0 C 0,0 -2.896,-8.74 -6.091,-14.112" /></g><g
           transform="translate(313.8535,403.2373)"
           id="g284"><path
             id="path286"
             style="fill:none;stroke:#d74015;stroke-width:1;stroke-linecap:butt;stroke-linejoin:miter;stroke-miterlimit:10;stroke-dasharray:none;stroke-opacity:1"
             d="M 0,0 C 0,0 -2.841,-2.424 -4.927,-3.439" /></g><g
           transform="translate(259.2168,374.5825)"
           id="g288"><path
             id="path290"
             style="fill:#ff8f6a;fill-opacity:1;fill-rule:nonzero;stroke:none"
             d="m 0,0 1.142,4.751 8.286,-5.38 z" /></g><g
           transform="translate(262.1582,375.7319)"
           id="g292"><path
             id="path294"
             style="fill:none;stroke:#d74015;stroke-width:1;stroke-linecap:butt;stroke-linejoin:miter;stroke-miterlimit:10;stroke-dasharray:none;stroke-opacity:1"
             d="M 0,0 C 0,0 4.896,2.354 8.194,4.466" /></g><g
           transform="translate(375.5449,513.731)"
           id="g296"><path
             id="path298"
             style="fill:#ffb319;fill-opacity:1;fill-rule:nonzero;stroke:none"
             d="m 0,0 v -25.845 c 0,-4.419 3.582,-8 8,-8 h 25.846 c 4.419,0 8,3.581 8,8 V 0 c 0,4.418 -3.581,8 -8,8 H 8 C 3.582,8 0,4.418 0,0" /></g><g
           transform="translate(384.0928,504.25)"
           id="g300"><path
             id="path302"
             style="fill:none;stroke:#ffffff;stroke-width:2;stroke-linecap:butt;stroke-linejoin:miter;stroke-miterlimit:10;stroke-dasharray:none;stroke-opacity:1"
             d="M 0,0 9.755,-9.754 24.75,5.241" /></g><g
           transform="translate(603.7939,262.8315)"
           id="g304"><path
             id="path306"
             style="fill:#e43f5a;fill-opacity:1;fill-rule:nonzero;stroke:none"
             d="m 0,0 c -5.482,33.997 -118.259,36.24 -129.407,0 -8.653,-28.126 -30.353,-112.093 -39.481,-126.505 -6.945,-10.967 -45.938,-6.578 -62.509,-17.913 -11.698,-8 -6.947,-28.148 -5.484,-35.825 H -42.77 C -1.097,-180.243 0,0 0,0" /></g><g
           transform="translate(603.7939,262.8315)"
           id="g308"><path
             id="path310"
             style="fill:#a5213a;fill-opacity:1;fill-rule:nonzero;stroke:none"
             d="M 0,0 C -0.53,3.289 -2.074,6.277 -4.424,8.965 -6.977,6.293 -8.85,3.309 -9.868,0 c -8.652,-28.126 -30.352,-112.093 -39.48,-126.505 -6.946,-10.967 -45.939,-6.578 -62.51,-17.913 -11.698,-8 -6.946,-28.148 -5.484,-35.825 H -42.77 C -1.097,-180.243 0,0 0,0" /></g><g
           transform="translate(383.6475,82.5889)"
           id="g312"><path
             id="path314"
             style="fill:#f1d6ab;fill-opacity:1;fill-rule:nonzero;stroke:none"
             d="m 0,0 -26.366,-165.138 h 9.02 L 18.734,0 Z" /></g><g
           transform="translate(430.4248,82.5889)"
           id="g316"><path
             id="path318"
             style="fill:#f1d6ab;fill-opacity:1;fill-rule:nonzero;stroke:none"
             d="M 0,0 -3.815,-165.138 H 5.204 L 18.734,0 Z" /></g><g
           transform="translate(503.3955,82.5889)"
           id="g320"><path
             id="path322"
             style="fill:#f1d6ab;fill-opacity:1;fill-rule:nonzero;stroke:none"
             d="m 0,0 3.816,-165.138 h -9.02 L -18.734,0 Z" /></g><g
           transform="translate(550.1729,82.5889)"
           id="g324"><path
             id="path326"
             style="fill:#f1d6ab;fill-opacity:1;fill-rule:nonzero;stroke:none"
             d="M 0,0 26.366,-165.138 H 17.347 L -18.734,0 Z" /></g><g
           transform="translate(401.5332,78.7061)"
           id="g328"><path
             id="path330"
             style="fill:#a0855b;fill-opacity:1;fill-rule:nonzero;stroke:none"
             d="M 0,0 0.849,3.883 H -17.886 L -18.055,2.824 Z" /></g><g
           transform="translate(448.2422,71.3994)"
           id="g332"><path
             id="path334"
             style="fill:#a0855b;fill-opacity:1;fill-rule:nonzero;stroke:none"
             d="M 0,0 0.917,11.189 H -17.817 L -18.011,2.817 Z" /></g><g
           transform="translate(503.8555,62.7007)"
           id="g336"><path
             id="path338"
             style="fill:#a0855b;fill-opacity:1;fill-rule:nonzero;stroke:none"
             d="M 0,0 -0.46,19.888 H -19.194 L -17.793,2.783 Z" /></g><g
           transform="translate(554.6162,54.7607)"
           id="g340"><path
             id="path342"
             style="fill:#a0855b;fill-opacity:1;fill-rule:nonzero;stroke:none"
             d="M 0,0 -4.443,27.828 H -23.177 L -17.702,2.769 Z" /></g><g
           transform="translate(429.8193,166.5703)"
           id="g344"><path
             id="path346"
             style="fill:#0e0e1c;fill-opacity:1;fill-rule:nonzero;stroke:none"
             d="m 0,0 -4.721,-21.69 -43.085,-15.168 c -16.248,-5.72 -26.313,-22.133 -23.772,-39.171 2.101,-14.093 7.803,-27.727 21.994,-27.727 H 64.265 c 0,0 34.455,29.232 39.3,67.803 C 105.82,-17.994 91.109,0 91.109,0 Z" /></g><g
           transform="translate(401.9922,155.4272)"
           id="g348"><path
             id="path350"
             style="fill:#0e0e1c;fill-opacity:1;fill-rule:nonzero;stroke:none"
             d="M 0,0 C 0,0 -21.146,18.417 -18.069,48.295 L -7.278,46.848 8.15,13.533 Z" /></g><g
           transform="translate(443.8623,296.6504)"
           id="g352"><path
             id="path354"
             style="fill:#ffc5ae;fill-opacity:1;fill-rule:nonzero;stroke:none"
             d="m 0,0 c 0,0 -10.501,-5.665 -19.227,-25.625 -15.194,-34.757 -24.635,-59.606 -24.635,-59.606 l -76.61,-36.676 c 0,0 -4.382,-9.013 5.828,-17.078 0,0 72.759,16.703 86.368,24.009 13.607,7.307 34.914,72.967 34.914,72.967 0,0 4.593,23.657 -6.638,42.009" /></g><g
           transform="translate(323.3906,174.7432)"
           id="g356"><path
             id="path358"
             style="fill:#ffc5ae;fill-opacity:1;fill-rule:nonzero;stroke:none"
             d="m 0,0 c 0,0 -7.319,4.428 -11.604,4.643 -4.287,0.214 -10.287,-2.357 -17.787,-4.715 -7.5,-2.357 -21.527,-13.425 -22.978,-14.319 -1.45,-0.895 0.686,-3.391 7.547,0 0,0 -1.271,-2.606 2.369,-2.606 2.349,0 5.349,2.932 5.349,2.932 0,0 0,-2.888 1.5,-2.969 1.5,-0.081 38.356,5.419 38.356,5.419 z" /></g><g
           transform="translate(329.2187,157.6655)"
           id="g360"><path
             id="path362"
             style="fill:#ffc5ae;fill-opacity:1;fill-rule:nonzero;stroke:none"
             d="m 0,0 h -14.219 c -7.286,0 -19.5,0.236 -17.786,3.049 1.715,2.814 27.77,7.306 27.77,7.306 z" /></g><g
           transform="translate(317.3447,166.5898)"
           id="g364"><path
             id="path366"
             style="fill:none;stroke:#ff946e;stroke-width:1;stroke-linecap:butt;stroke-linejoin:miter;stroke-miterlimit:10;stroke-dasharray:none;stroke-opacity:1"
             d="m 0,0 c 0,0 -19.231,-3.396 -20.131,-5.875 -0.898,-2.479 10.066,-2.969 10.066,-2.969" /></g><g
           transform="translate(286.2861,160.6782)"
           id="g368"><path
             id="path370"
             style="fill:none;stroke:#ff946e;stroke-width:1;stroke-linecap:butt;stroke-linejoin:miter;stroke-miterlimit:10;stroke-dasharray:none;stroke-opacity:1"
             d="m 0,0 c 1.071,1.993 6.428,8.282 15,13.026 2.453,1.358 8.571,3.539 8.571,3.539" /></g><g
           transform="translate(278.5684,160.3521)"
           id="g372"><path
             id="path374"
             style="fill:none;stroke:#ff946e;stroke-width:1;stroke-linecap:butt;stroke-linejoin:miter;stroke-miterlimit:10;stroke-dasharray:none;stroke-opacity:1"
             d="M 0,0 C 3.218,4.462 14.146,13.352 14.146,13.352" /></g><g
           transform="translate(401.9922,155.4272)"
           id="g376"><path
             id="path378"
             style="fill:#43d8c9;fill-opacity:1;fill-rule:nonzero;stroke:none"
             d="m 0,0 c 0,0 28.128,17.46 36.727,36.559 8.598,19.098 22.325,72.255 22.325,72.255 L 41.87,141.223 c 0,0 -10.664,-5.686 -19.226,-25.624 C 14.082,95.66 -1.992,55.992 -1.992,55.992 l -16.077,-7.697 c 0,0 4.52,0.649 12.37,-11.736 C 2.15,24.173 0,0 0,0" /></g><g
           transform="translate(400,211.4194)"
           id="g380"><path
             id="path382"
             style="fill:none;stroke:#0e0e1c;stroke-width:1;stroke-linecap:butt;stroke-linejoin:miter;stroke-miterlimit:10;stroke-dasharray:none;stroke-opacity:1"
             d="M 0,0 12.403,-18.289" /></g><g
           transform="translate(438.7187,191.9858)"
           id="g384"><path
             id="path386"
             style="fill:#29aa9b;fill-opacity:1;fill-rule:nonzero;stroke:none"
             d="M 0,0 C 8.599,19.099 22.325,72.255 22.325,72.255 L 10.164,95.195 C -5.382,41.508 -36.727,-36.559 -36.727,-36.559 c 0,0 28.128,17.46 36.727,36.559" /></g><g
           transform="translate(467.166,301.9458)"
           id="g388"><path
             id="path390"
             style="fill:#f7f7f7;fill-opacity:1;fill-rule:nonzero;stroke:none"
             d="m 0,0 -23.304,-5.295 c 0,0 -15.847,-38.821 -15.453,-54.101 0.396,-15.28 1.41,-75.979 1.41,-75.979 0,0 43.828,-13.175 91.11,0 0,0 3.866,50.772 6.024,61.761 2.158,10.989 5.055,71.697 5.055,71.697 L 40.777,0 Z" /></g><g
           transform="translate(526.8252,385.6572)"
           id="g392"><path
             id="path394"
             style="fill:#5e1212;fill-opacity:1;fill-rule:nonzero;stroke:none"
             d="m 0,0 c 3.121,-9.45 7.942,-51.174 18.871,-63.58 0,0 -31.162,-18.43 -59.778,-16.864 -28.615,1.566 -46.909,14.531 -46.909,14.531 0,0 20.817,34.737 24.584,65.913 z" /></g><g
           transform="translate(504.3818,350.2236)"
           id="g396"><path
             id="path398"
             style="fill:#ffc5ae;fill-opacity:1;fill-rule:nonzero;stroke:none"
             d="m 0,0 c 0,0 -5.906,-39.611 3.562,-48.278 0,0 -18.73,-23.973 -30.391,-21.086 -9.908,2.453 -10.387,21.086 -10.387,21.086 0,0 3.754,2.581 6.428,9.493 2.674,6.911 3.4,25.154 3.4,25.154 z" /></g><g
           transform="translate(500.6533,348.3677)"
           id="g400"><path
             id="path402"
             style="fill:#ff946e;fill-opacity:1;fill-rule:nonzero;stroke:none"
             d="m 0,0 -23.659,-11.775 c 0,0 -0.612,-15.323 -2.774,-23.201 C -2.247,-27.094 -0.174,-4.143 0,0" /></g><g
           transform="translate(512.6299,387.9629)"
           id="g404"><path
             id="path406"
             style="fill:#ffc5ae;fill-opacity:1;fill-rule:nonzero;stroke:none"
             d="m 0,0 c -7.576,25.836 -56.173,31.053 -58.623,-5.748 -1.295,-19.456 -5.336,-51.953 12.08,-55.807 C -29.126,-65.409 11.038,-37.643 0,0" /></g><g
           transform="translate(475.6836,373.7681)"
           id="g408"><path
             id="path410"
             style="fill:#5e1212;fill-opacity:1;fill-rule:nonzero;stroke:none"
             d="m 0,0 c 0,0 7.13,5.888 14.522,-1.996 0,0 -3.182,11.96 -13.377,6.255 z" /></g><g
           transform="translate(476.8281,364.7563)"
           id="g412"><path
             id="path414"
             style="fill:none;stroke:#541d0c;stroke-width:1;stroke-linecap:butt;stroke-linejoin:miter;stroke-miterlimit:10;stroke-dasharray:none;stroke-opacity:1"
             d="m 0,0 c 0,0 2.32,6.86 5.213,6.69 2.893,-0.169 2.11,-6.973 2.11,-6.973" /></g><g
           transform="translate(463.9033,374.3306)"
           id="g416"><path
             id="path418"
             style="fill:#5e1212;fill-opacity:1;fill-rule:nonzero;stroke:none"
             d="m 0,0 c 0,0 -5.376,5.87 -8.484,1.006 0,0 2.72,8.798 8.484,2.851 z" /></g><g
           transform="translate(462.3564,365.9736)"
           id="g420"><path
             id="path422"
             style="fill:none;stroke:#541d0c;stroke-width:1;stroke-linecap:butt;stroke-linejoin:miter;stroke-miterlimit:10;stroke-dasharray:none;stroke-opacity:1"
             d="m 0,0 c 0,0 0.168,6.429 -2.207,6.429 -2.376,0 -2.61,-5.17 -2.61,-5.17" /></g><g
           transform="translate(465.8809,361.6997)"
           id="g424"><path
             id="path426"
             style="fill:none;stroke:#ff946e;stroke-width:1;stroke-linecap:butt;stroke-linejoin:miter;stroke-miterlimit:10;stroke-dasharray:none;stroke-opacity:1"
             d="m 0,0 c 0,0 -1.632,-4.613 -6.22,-8.31 0,0 0.845,-2.761 4.355,-3.166" /></g><g
           transform="translate(460.4287,345.2876)"
           id="g428"><path
             id="path430"
             style="fill:none;stroke:#ff946e;stroke-width:1;stroke-linecap:butt;stroke-linejoin:miter;stroke-miterlimit:10;stroke-dasharray:none;stroke-opacity:1"
             d="M 0,0 C 0,0 4.212,-6.062 13.475,0" /></g><g
           transform="translate(477.5527,359.895)"
           id="g432"><path
             id="path434"
             style="fill:none;stroke:#ff946e;stroke-width:1;stroke-linecap:butt;stroke-linejoin:miter;stroke-miterlimit:10;stroke-dasharray:none;stroke-opacity:1"
             d="M 0,0 C 2.09,3.616 11.108,2.651 11.661,0" /></g><g
           transform="translate(459.9492,360.188)"
           id="g436"><path
             id="path438"
             style="fill:none;stroke:#ff946e;stroke-width:1;stroke-linecap:butt;stroke-linejoin:miter;stroke-miterlimit:10;stroke-dasharray:none;stroke-opacity:1"
             d="M 0,0 C 0,0 -2.641,4.66 -6.033,2.411" /></g><g
           transform="translate(453.1484,378.5117)"
           id="g440"><path
             id="path442"
             style="fill:#5e1212;fill-opacity:1;fill-rule:nonzero;stroke:none"
             d="m 0,0 c 0,0 5.489,11.517 17.197,18.91 0,0 13.759,-33.107 39.734,-34.393 L 73.677,7.146 c 0,0 -6.626,26.046 -22.444,28.648 -15.816,2.602 -32.32,-5.558 -32.32,-5.558 0,0 -7.576,9.893 -16.953,2.659 -9.377,-7.235 -21.27,-2.829 -21.27,-2.829 0,0 3.058,-6.075 15.672,-4.437 0,0 -16.909,-17.86 3.638,-25.629" /></g><g
           transform="translate(499.623,378.5117)"
           id="g444"><path
             id="path446"
             style="fill:#5e1212;fill-opacity:1;fill-rule:nonzero;stroke:none"
             d="M 0,0 C 0,0 1.721,-30.474 14.896,-38.085 L 17.437,-1.34 Z" /></g><g
           transform="translate(502.0781,358.6792)"
           id="g448"><path
             id="path450"
             style="fill:#ffc5ae;fill-opacity:1;fill-rule:nonzero;stroke:none"
             d="M 0,0 C 0,0 18.309,20.937 17.825,4.396 17.343,-12.144 -1.833,-12.573 -1.833,-12.573 Z" /></g><g
           transform="translate(466.4932,367.3145)"
           id="g452"><path
             id="path454"
             style="fill:none;stroke:#ececec;stroke-width:2;stroke-linecap:butt;stroke-linejoin:miter;stroke-miterlimit:10;stroke-dasharray:none;stroke-opacity:1"
             d="m 0,0 c 0,-4.673 -3.788,-8.461 -8.461,-8.461 -4.673,0 -8.461,3.788 -8.461,8.461 0,4.673 3.788,8.461 8.461,8.461 C -3.788,8.461 0,4.673 0,0 Z" /></g><g
           transform="translate(489.4072,367.3145)"
           id="g456"><path
             id="path458"
             style="fill:none;stroke:#ececec;stroke-width:2;stroke-linecap:butt;stroke-linejoin:miter;stroke-miterlimit:10;stroke-dasharray:none;stroke-opacity:1"
             d="m 0,0 c 0,-4.673 -3.788,-8.461 -8.461,-8.461 -4.673,0 -8.461,3.788 -8.461,8.461 0,4.673 3.788,8.461 8.461,8.461 C -3.788,8.461 0,4.673 0,0 Z" /></g><g
           transform="translate(466.4932,367.3145)"
           id="g460"><path
             id="path462"
             style="fill:none;stroke:#ececec;stroke-width:2;stroke-linecap:butt;stroke-linejoin:miter;stroke-miterlimit:10;stroke-dasharray:none;stroke-opacity:1"
             d="M 0,0 H 5.992" /></g><g
           transform="translate(489.4072,367.3145)"
           id="g464"><path
             id="path466"
             style="fill:none;stroke:#ececec;stroke-width:2;stroke-linecap:butt;stroke-linejoin:miter;stroke-miterlimit:10;stroke-dasharray:none;stroke-opacity:1"
             d="M 0,0 H 20.485" /></g><g
           transform="translate(515.9912,360.0215)"
           id="g468"><path
             id="path470"
             style="fill:none;stroke:#ff946e;stroke-width:1;stroke-linecap:butt;stroke-linejoin:miter;stroke-miterlimit:10;stroke-dasharray:none;stroke-opacity:1"
             d="M 0,0 C 0,0 1.465,5.481 -2.431,3.372 -9.924,-0.686 -10.21,-3.952 -9.382,-8.541" /></g><g
           transform="translate(510.0791,365.9736)"
           id="g472"><path
             id="path474"
             style="fill:#1b1b2f;fill-opacity:1;fill-rule:nonzero;stroke:none"
             d="m 0,0 c 0,0 -1.081,51.85 -38.018,42.774 l -2.774,2.659 c 0,0 13.191,11.413 30.336,0 C 6.688,34.02 6.981,1.341 6.981,1.341 Z" /></g><g
           transform="translate(512.7871,375.6704)"
           id="g476"><path
             id="path478"
             style="fill:#26263f;fill-opacity:1;fill-rule:nonzero;stroke:none"
             d="m 0,0 c -6.495,0 -12.438,-7.735 -13.272,-17.277 -0.835,-9.543 3.753,-17.278 10.249,-17.278 6.495,0 12.437,7.735 13.272,17.278 C 11.084,-7.735 6.495,0 0,0" /></g><g
           transform="translate(514.8652,369.0425)"
           id="g480"><path
             id="path482"
             style="fill:none;stroke:#1b1b2f;stroke-width:1;stroke-linecap:butt;stroke-linejoin:miter;stroke-miterlimit:10;stroke-dasharray:none;stroke-opacity:1"
             d="m 0,0 c -3.169,0 -6.068,-5.046 -6.476,-11.271 -0.407,-6.224 1.831,-11.27 5,-11.27 3.169,0 6.069,5.046 6.476,11.27 C 5.407,-5.046 3.169,0 0,0 Z" /></g><g
           transform="translate(514.958,364.4736)"
           id="g484"><path
             id="path486"
             style="fill:#43d8c9;fill-opacity:1;fill-rule:nonzero;stroke:none"
             d="m 0,0 c -1.728,0 -3.308,-3 -3.529,-6.702 -0.222,-3.701 0.998,-6.701 2.725,-6.701 1.727,0 3.307,3 3.53,6.701 C 2.947,-3 1.728,0 0,0" /></g><g
           transform="translate(505.6836,360.772)"
           id="g488"><path
             id="path490"
             style="fill:#1b1b2f;fill-opacity:1;fill-rule:nonzero;stroke:none"
             d="m 0,0 c 0.557,6.356 3.385,11.896 7.127,14.897 -0.008,0 -0.016,0.002 -0.023,0.002 -6.496,0 -12.438,-7.736 -13.273,-17.278 -0.835,-9.542 3.754,-17.278 10.249,-17.278 2.169,0 4.27,0.877 6.146,2.381 C 3.743,-17.256 -0.833,-9.53 0,0" /></g><g
           transform="translate(485.4395,339.7275)"
           id="g492"><path
             id="path494"
             style="fill:#1b1b2f;fill-opacity:1;fill-rule:nonzero;stroke:none"
             d="m 0,0 -0.583,1.655 c 12.785,4.496 17.004,10.043 17.045,10.098 l 1.41,-1.044 C 17.69,10.465 13.287,4.672 0,0" /></g><g
           transform="translate(485.918,339.4575)"
           id="g496"><path
             id="path498"
             style="fill:#0e0e1c;fill-opacity:1;fill-rule:nonzero;stroke:none"
             d="M 0,0 C 0,0 0.288,2.737 -2.324,3.136 -4.937,3.536 -9.544,0.428 -8.365,-1.929 -7.187,-4.286 -0.849,-2.786 0,0" /></g><g
           transform="translate(532.0078,300.0288)"
           id="g500"><path
             id="path502"
             style="fill:#43d8c9;fill-opacity:1;fill-rule:nonzero;stroke:none"
             d="m 0,0 c 0,0 12.188,-3.933 16.778,-19.478 4.59,-15.544 36.643,-91.736 -10.277,-94.712 -10.521,-0.667 -14.582,43.459 -14.582,43.459 0,0 -1.196,54.445 8.081,70.731" /></g><g
           transform="translate(428.4102,242.5498)"
           id="g504"><path
             id="path506"
             style="fill:#d7dddc;fill-opacity:1;fill-rule:nonzero;stroke:none"
             d="m 0,0 c 0.395,-15.28 1.409,-75.979 1.409,-75.979 0,0 8.708,-2.616 22.542,-4.351 3.371,63.511 14.805,139.726 14.805,139.726 L 15.452,54.101 C 15.452,54.101 -0.396,15.28 0,0" /></g><g
           transform="translate(507.9434,301.9458)"
           id="g508"><path
             id="path510"
             style="fill:#43d8c9;fill-opacity:1;fill-rule:nonzero;stroke:none"
             d="m 0,0 c 0,0 -9.958,-73.06 -5.451,-155.346 0,0 29.215,-6.428 40.861,5.572 0,0 -10.517,29.548 -11.346,73.531 -0.349,18.578 0,74.326 0,74.326 z" /></g><g
           transform="translate(467.166,301.9458)"
           id="g512"><path
             id="path514"
             style="fill:#43d8c9;fill-opacity:1;fill-rule:nonzero;stroke:none"
             d="m 0,0 c 0,0 -20.604,-59.946 -25.956,-152.003 0,0 -12.21,-1.617 -20.353,3.734 0,0 6.264,91.577 7.545,97.528 5.437,25.257 15.46,45.446 15.46,45.446 z" /></g><g
           transform="translate(532.0078,234.6191)"
           id="g516"><path
             id="path518"
             style="fill:none;stroke:#0e0e1c;stroke-width:1;stroke-linecap:butt;stroke-linejoin:miter;stroke-miterlimit:10;stroke-dasharray:none;stroke-opacity:1"
             d="M 0,0 C 0,0 -15.046,33.485 -4.076,58.676" /></g><g
           transform="translate(532.0078,225.7031)"
           id="g520"><path
             id="path522"
             style="fill:#29aa9b;fill-opacity:1;fill-rule:nonzero;stroke:none"
             d="m 0,0 c -0.056,2.939 -0.093,6.811 -0.117,11.243 l -28.304,19.049 c -0.583,-8.529 -1.117,-17.997 -1.52,-28.187 5.375,-16.558 13.42,-35.576 24.758,-49.053 l 7.168,-31.969 c 3.614,1.124 6.886,2.835 9.361,5.385 0,0 -10.518,29.549 -11.346,73.532" /></g><g
           transform="translate(440.2607,287.3472)"
           id="g524"><path
             id="path526"
             style="fill:none;stroke:#0e0e1c;stroke-width:1;stroke-linecap:butt;stroke-linejoin:miter;stroke-miterlimit:10;stroke-dasharray:none;stroke-opacity:1"
             d="m 0,0 c 0,0 -8.17,-21.966 -11.858,-36.142 -3.689,-14.176 -5.919,-79.956 -5.919,-79.956" /></g><g
           transform="translate(544.5205,228.4448)"
           id="g528"><path
             id="path530"
             style="fill:#0e0e1c;fill-opacity:1;fill-rule:nonzero;stroke:none"
             d="M 0,0 C 0,0 6.115,-55.569 -13.831,-40.213 -25.588,-31.162 -26.944,6.174 -26.944,6.174 Z" /></g><g
           transform="translate(473.1016,310.2432)"
           id="g532"><path
             id="path534"
             style="fill:#29aa9b;fill-opacity:1;fill-rule:nonzero;stroke:none"
             d="m 0,0 c 0,0 -1.412,-4.292 -5.936,-8.297 0,0 -7.333,-28.202 -16.535,-69.863 0,0 -7.893,22.116 -6.619,29.441 1.275,7.326 8.656,13.433 8.656,13.433 0,0 -0.807,14.428 -0.548,20.094 C -20.724,-9.525 0,0 0,0" /></g><g
           transform="translate(503.7217,310.2432)"
           id="g536"><path
             id="path538"
             style="fill:#29aa9b;fill-opacity:1;fill-rule:nonzero;stroke:none"
             d="m 0,0 c 0,0 17.341,-6.357 18.988,-10.214 1.648,-3.858 -13.217,-25.393 -13.217,-25.393 0,0 5.683,-9.027 6.417,-14.799 0.733,-5.773 -13.843,-32.029 -13.843,-32.029 0,0 0.39,44.233 5.877,74.138 0,0 -3.644,3.405 -4.222,8.297" /></g><g
           transform="translate(493.8545,315.2993)"
           id="g540"><path
             id="path542"
             style="fill:#ff946e;fill-opacity:1;fill-rule:nonzero;stroke:none"
             d="m 0,0 c 0,0 -7.074,24.84 -9.907,21.588 -7.114,-8.167 1.782,-25.574 1.782,-25.574 z" /></g><g
           transform="translate(505.6895,295.3682)"
           id="g544"><path
             id="path546"
             style="fill:#ffc5ae;fill-opacity:1;fill-rule:nonzero;stroke:none"
             d="m 0,0 c 0,0 -2.588,13.72 -1.854,17.576 1.017,5.345 -5.039,17.214 -7.734,21.346 -2.696,4.131 -10.539,12.747 -11.403,11.073 -0.865,-1.674 1.747,-9.555 5.497,-14.513 0,0 -3.328,3.152 -5.258,-0.076 -1.93,-3.227 -0.83,-5.866 -0.83,-5.866 0,0 -2.899,0.031 -4.336,-2.579 -1.436,-2.61 -1.207,-6.399 -1.207,-6.399 0,0 -4.248,-0.671 -4.336,-4.161 -0.088,-3.49 3.164,-11.703 4.512,-14.692 1.347,-2.989 2.555,2.094 2.555,2.094 l 8.868,-9.386 z" /></g><g
           transform="translate(490.1953,330.8501)"
           id="g548"><path
             id="path550"
             style="fill:none;stroke:#ff946e;stroke-width:1;stroke-linecap:butt;stroke-linejoin:miter;stroke-miterlimit:10;stroke-dasharray:none;stroke-opacity:1"
             d="M 0,0 C 0,0 3.623,-2.94 5.577,-11.557" /></g><g
           transform="translate(484.1074,324.9077)"
           id="g552"><path
             id="path554"
             style="fill:none;stroke:#ff946e;stroke-width:1;stroke-linecap:butt;stroke-linejoin:miter;stroke-miterlimit:10;stroke-dasharray:none;stroke-opacity:1"
             d="M 0,0 C 0,0 4.77,-2.652 6.296,-10.649" /></g><g
           transform="translate(478.5645,315.9297)"
           id="g556"><path
             id="path558"
             style="fill:none;stroke:#ff946e;stroke-width:1;stroke-linecap:butt;stroke-linejoin:miter;stroke-miterlimit:10;stroke-dasharray:none;stroke-opacity:1"
             d="M 0,0 C 0,0 3.234,0.993 6.233,-5.687" /></g><g
           transform="translate(481.2959,299.1709)"
           id="g560"><path
             id="path562"
             style="fill:none;stroke:#ff946e;stroke-width:1;stroke-linecap:butt;stroke-linejoin:miter;stroke-miterlimit:10;stroke-dasharray:none;stroke-opacity:1"
             d="M 0,0 C 0,0 -2.348,3.59 -1.529,8.658" /></g><g
           transform="translate(500.9717,296.0405)"
           id="g564"><path
             id="path566"
             style="fill:#ffc5ae;fill-opacity:1;fill-rule:nonzero;stroke:none"
             d="m 0,0 43.549,-67.596 c 0,0 -2.304,-34.013 -27.46,-11.987 -15.685,13.733 -32.362,76.854 -32.362,76.854 z" /></g><g
           transform="translate(378.8223,339.3799)"
           id="g568"><path
             id="path570"
             style="fill:#1b1b2f;fill-opacity:1;fill-rule:nonzero;stroke:none"
             d="m 0,0 h -173.941 c -7.358,0 -12.932,-6.643 -11.654,-13.888 l 20.695,-117.363 c 0.997,-5.656 5.91,-9.779 11.653,-9.779 h 4.173 173.941 z" /></g><g
           transform="translate(395.9404,242.2988)"
           id="g572"><path
             id="path574"
             style="fill:#0e0e1c;fill-opacity:1;fill-rule:nonzero;stroke:none"
             d="m 0,0 c -56.557,-5.643 -138.921,-1.729 -200.632,71.387 l 18.613,-105.557 c 0.998,-5.656 5.911,-9.779 11.654,-9.779 h 4.173 173.941 z" /></g><g
           transform="translate(323.8887,240.77)"
           id="g576"><path
             id="path578"
             style="fill:#0e0e1c;fill-opacity:1;fill-rule:nonzero;stroke:none"
             d="m 0,0 h -59.39 l -7.479,-42.42 H 7.705 Z" /></g><g
           transform="translate(378.8223,339.3799)"
           id="g580"><path
             id="path582"
             style="fill:#26263f;fill-opacity:1;fill-rule:nonzero;stroke:none"
             d="M 0,0 V 0 C -7.357,0 -12.932,-6.643 -11.653,-13.889 L 9.041,-131.251 c 0.997,-5.656 5.911,-9.779 11.653,-9.779 h 4.173 z" /></g><g
           transform="translate(310.1816,163.0342)"
           id="g584"><path
             id="path586"
             style="fill:#1b1b2f;fill-opacity:1;fill-rule:nonzero;stroke:none"
             d="m 0,0 13.707,77.736 h -59.39 L -59.4,-0.062 c -0.648,-3.674 2.178,-7.042 5.909,-7.042 H 47.575 V -6 c 0,3.314 -2.686,6 -6,6 z" /></g><g
           transform="translate(256.6904,155.9302)"
           id="g588"><path
             id="path590"
             style="fill:#0e0e1c;fill-opacity:1;fill-rule:nonzero;stroke:none"
             d="m 0,0 h 101.066 v 1.104 c 0,3.314 -2.686,6 -6,6 H 53.491 l 1.925,10.917 C 14.307,33.791 7.809,84.84 7.809,84.84 L -5.909,7.042 C -6.557,3.368 -3.73,0 0,0" /></g><g
           transform="translate(351.7568,163.0342)"
           id="g592"><path
             id="path594"
             style="fill:#26263f;fill-opacity:1;fill-rule:nonzero;stroke:none"
             d="m 0,0 h -41.575 l 13.707,77.736 c -4.193,0 -7.78,-3.01 -8.508,-7.139 L -48.835,-0.062 c -0.648,-3.674 2.178,-7.042 5.908,-7.042 H 6 V -6 C 6,-2.686 3.313,0 0,0" /></g><g
           transform="translate(283.1064,288.5664)"
           id="g596"><path
             id="path598"
             style="fill:#26263f;fill-opacity:1;fill-rule:nonzero;stroke:none"
             d="m 0,0 c -5.233,0 -8.729,-4.243 -7.806,-9.477 0.923,-5.233 5.914,-9.476 11.148,-9.476 5.233,0 8.728,4.243 7.805,9.476 C 10.225,-4.243 5.233,0 0,0" /></g><g
           transform="translate(535.7764,135.1499)"
           id="g600"><path
             id="path602"
             style="fill:#db8321;fill-opacity:1;fill-rule:nonzero;stroke:none"
             d="M 0,0 4.579,-198.167 H -6.245 L -22.481,0 Z" /></g><g
           transform="translate(654.7998,135.1499)"
           id="g604"><path
             id="path606"
             style="fill:#db8321;fill-opacity:1;fill-rule:nonzero;stroke:none"
             d="M 0,0 31.641,-198.167 H 20.816 L -22.48,0 Z" /></g><g
           transform="translate(267.3828,135.1499)"
           id="g608"><path
             id="path610"
             style="fill:#9c5518;fill-opacity:1;fill-rule:nonzero;stroke:none"
             d="M 0,0 -4.579,-198.167 H 6.245 L 22.481,0 Z" /></g><g
           transform="translate(148.3594,135.1499)"
           id="g612"><path
             id="path614"
             style="fill:#db8321;fill-opacity:1;fill-rule:nonzero;stroke:none"
             d="m 0,0 -31.641,-198.167 h 10.825 L 22.481,0 Z" /></g><path
           id="path616"
           style="fill:#ef962d;fill-opacity:1;fill-rule:nonzero;stroke:none"
           d="M 691.207,126.646 H 108.793 v 29.285 h 582.414 z" /><path
           id="path618"
           style="fill:#9c5518;fill-opacity:1;fill-rule:nonzero;stroke:none"
           d="M 691.207,126.646 H 469.264 v 29.285 h 221.943 z" /><g
           transform="translate(108.793,155.9302)"
           id="g620"><path
             id="path622"
             style="fill:#db8321;fill-opacity:1;fill-rule:nonzero;stroke:none"
             d="M 0,0 360.471,-29.285 V 0 Z" /></g><g
           transform="translate(603.7939,440.7578)"
           id="g624"><path
             id="path626"
             style="fill:none;stroke:#95389e;stroke-width:1;stroke-linecap:butt;stroke-linejoin:miter;stroke-miterlimit:10;stroke-dasharray:none;stroke-opacity:1"
             d="m 0,0 v -32.91 c 0,-2.211 -1.792,-4.004 -4.003,-4.004 h -56.671 l -8.19,-10.998 v 10.998 9.693 V 0 c 0,2.211 1.793,4.004 4.004,4.004 H -4.003 C -1.792,4.004 0,2.211 0,0 Z" /></g><g
           transform="translate(558.0625,426.6582)"
           id="g628"><path
             id="path630"
             style="fill:#ffb319;fill-opacity:1;fill-rule:nonzero;stroke:none"
             d="m 0,0 c -1.576,0 -2.854,-1.277 -2.854,-2.854 0,-1.575 1.278,-2.853 2.854,-2.853 1.575,0 2.854,1.278 2.854,2.853 C 2.854,-1.277 1.575,0 0,0" /></g><g
           transform="translate(569.3623,426.6582)"
           id="g632"><path
             id="path634"
             style="fill:#ffb319;fill-opacity:1;fill-rule:nonzero;stroke:none"
             d="m 0,0 c -1.576,0 -2.854,-1.277 -2.854,-2.854 0,-1.575 1.278,-2.853 2.854,-2.853 1.575,0 2.854,1.278 2.854,2.853 C 2.854,-1.277 1.575,0 0,0" /></g><g
           transform="translate(580.6621,426.6582)"
           id="g636"><path
             id="path638"
             style="fill:#ffb319;fill-opacity:1;fill-rule:nonzero;stroke:none"
             d="m 0,0 c -1.576,0 -2.854,-1.277 -2.854,-2.854 0,-1.575 1.278,-2.853 2.854,-2.853 1.575,0 2.854,1.278 2.854,2.853 C 2.854,-1.277 1.575,0 0,0" /></g><g
           transform="translate(222.1221,467.3877)"
           id="g640"><path
             id="path642"
             style="fill:#43d8c9;fill-opacity:1;fill-rule:nonzero;stroke:none"
             d="m 0,0 v -13.171 c 0,-2.209 1.791,-4 4,-4 h 49.645 c 2.209,0 4,1.791 4,4 V 0 c 0,2.209 -1.791,4 -4,4 H 4 C 1.791,4 0,2.209 0,0" /></g><g
           transform="translate(258.8652,462.8022)"
           id="g644"><path
             id="path646"
             style="fill:#ffffff;fill-opacity:1;fill-rule:nonzero;stroke:none"
             d="m 0,0 c 1.104,0 2,-0.896 2,-2 0,-1.104 -0.896,-2 -2,-2 -1.104,0 -2,0.896 -2,2 0,1.104 0.896,2 2,2" /></g><g
           transform="translate(250.9443,462.8022)"
           id="g648"><path
             id="path650"
             style="fill:#ffffff;fill-opacity:1;fill-rule:nonzero;stroke:none"
             d="m 0,0 c 1.104,0 2,-0.896 2,-2 0,-1.104 -0.896,-2 -2,-2 -1.104,0 -2,0.896 -2,2 0,1.104 0.896,2 2,2" /></g><g
           transform="translate(243.0234,462.8022)"
           id="g652"><path
             id="path654"
             style="fill:#ffffff;fill-opacity:1;fill-rule:nonzero;stroke:none"
             d="m 0,0 c 1.104,0 2,-0.896 2,-2 0,-1.104 -0.896,-2 -2,-2 -1.104,0 -2,0.896 -2,2 0,1.104 0.896,2 2,2" /></g></g></g></g></svg>