<svg xmlns="http://www.w3.org/2000/svg" width="341" height="298.97" viewBox="0 0 341 298.97"><defs><style>.a{fill:#fff;}.a,.b,.c{fill-rule:evenodd;}.b{fill:#10069f;}.c{fill:#f05;}</style></defs><path class="a" d="M1.9,257.8v-38a13,13,0,0,1,13-13h0a13,13,0,0,1,13,13v38a13,13,0,0,1-13,13h0a13,13,0,0,1-13-13" transform="translate(0 -0.73)"/><path class="b" d="M14.9,208.7A11.14,11.14,0,0,0,3.8,219.8v38a11.1,11.1,0,0,0,22.2,0v-38a11.14,11.14,0,0,0-11.1-11.1m0,64A14.94,14.94,0,0,1,0,257.8v-38a14.9,14.9,0,0,1,29.8,0v38a15,15,0,0,1-14.9,14.9" transform="translate(0 -0.73)"/><path class="a" d="M14.9,206.8a13,13,0,1,1-13,13,13,13,0,0,1,13-13" transform="translate(0 -0.73)"/><path class="b" d="M14.9,208.7A11.1,11.1,0,1,0,26,219.8a11.14,11.14,0,0,0-11.1-11.1m0,26a14.9,14.9,0,1,1,14.9-14.9,15.07,15.07,0,0,1-14.9,14.9" transform="translate(0 -0.73)"/><path class="a" d="M53.4,257.8V198.5a13,13,0,0,1,13-13h0a13,13,0,0,1,13,13v59.3a13,13,0,0,1-13,13h0a13,13,0,0,1-13-13" transform="translate(0 -0.73)"/><path class="b" d="M66.4,187.4a11.14,11.14,0,0,0-11.1,11.1v59.3a11.1,11.1,0,1,0,22.2,0V198.5a11.14,11.14,0,0,0-11.1-11.1m0,85.3a14.94,14.94,0,0,1-14.9-14.9V198.5a14.9,14.9,0,1,1,29.8,0v59.3a15,15,0,0,1-14.9,14.9" transform="translate(0 -0.73)"/><path class="a" d="M66.4,185.5a13,13,0,1,1-13,13,13,13,0,0,1,13-13" transform="translate(0 -0.73)"/><path class="b" d="M66.4,187.4a11.1,11.1,0,1,0,11.1,11.1,11.14,11.14,0,0,0-11.1-11.1m0,26a14.9,14.9,0,1,1,14.9-14.9,14.94,14.94,0,0,1-14.9,14.9" transform="translate(0 -0.73)"/><path class="a" d="M104.9,257.8V217.5a13,13,0,0,1,13-13h0a13,13,0,0,1,13,13v40.3a13,13,0,0,1-13,13h0a13,13,0,0,1-13-13" transform="translate(0 -0.73)"/><path class="b" d="M117.9,206.4a11.14,11.14,0,0,0-11.1,11.1v40.3a11.1,11.1,0,1,0,22.2,0V217.5a11.14,11.14,0,0,0-11.1-11.1m0,66.3A14.94,14.94,0,0,1,103,257.8V217.5a14.9,14.9,0,0,1,29.8,0v40.3a15,15,0,0,1-14.9,14.9" transform="translate(0 -0.73)"/><path class="a" d="M117.9,204.5a13,13,0,1,1-13,13,13,13,0,0,1,13-13" transform="translate(0 -0.73)"/><path class="b" d="M117.9,206.4A11.1,11.1,0,1,0,129,217.5a11.14,11.14,0,0,0-11.1-11.1m0,26a14.9,14.9,0,1,1,14.9-14.9,14.94,14.94,0,0,1-14.9,14.9" transform="translate(0 -0.73)"/><path class="c" d="M156.4,257.8V234.7a13,13,0,0,1,13-13h0a13,13,0,0,1,13,13v23.1a13,13,0,0,1-13,13h0a13,13,0,0,1-13-13" transform="translate(0 -0.73)"/><path class="c" d="M169.4,223.6a11.14,11.14,0,0,0-11.1,11.1v23.1a11.1,11.1,0,1,0,22.2,0V234.7a11.14,11.14,0,0,0-11.1-11.1m0,49.1a14.94,14.94,0,0,1-14.9-14.9V234.7a14.9,14.9,0,0,1,29.8,0v23.1a14.94,14.94,0,0,1-14.9,14.9" transform="translate(0 -0.73)"/><path class="a" d="M169.4,221.8a13,13,0,1,1-13,13,13,13,0,0,1,13-13" transform="translate(0 -0.73)"/><path class="c" d="M169.4,223.6a11.1,11.1,0,1,0,11.1,11.1,11.14,11.14,0,0,0-11.1-11.1m0,26a14.9,14.9,0,1,1,14.9-14.9,14.94,14.94,0,0,1-14.9,14.9" transform="translate(0 -0.73)"/><path class="a" d="M210.1,257.8V196.2a13,13,0,0,1,13-13h0a13,13,0,0,1,13,13v61.6a13,13,0,0,1-13,13h0a13,13,0,0,1-13-13" transform="translate(0 -0.73)"/><path class="b" d="M223,185.1a11.14,11.14,0,0,0-11.1,11.1v61.6a11.1,11.1,0,0,0,22.2,0V196.2A11.07,11.07,0,0,0,223,185.1m0,87.6a14.94,14.94,0,0,1-14.9-14.9V196.2a14.9,14.9,0,0,1,29.8,0v61.6A14.94,14.94,0,0,1,223,272.7" transform="translate(0 -0.73)"/><path class="a" d="M223,183.3a13,13,0,1,1-13,13,13,13,0,0,1,13-13" transform="translate(0 -0.73)"/><path class="b" d="M223,185.1a11.1,11.1,0,1,0,11.1,11.1A11.14,11.14,0,0,0,223,185.1m0,26a14.9,14.9,0,1,1,14.9-14.9A14.94,14.94,0,0,1,223,211.1" transform="translate(0 -0.73)"/><path class="a" d="M261.6,257.8V153.6a13,13,0,0,1,13-13h0a13,13,0,0,1,13,13V257.8a13,13,0,0,1-13,13h0a13,13,0,0,1-13-13" transform="translate(0 -0.73)"/><path class="b" d="M274.6,142.5a11.14,11.14,0,0,0-11.1,11.1V257.8a11.1,11.1,0,1,0,22.2,0V153.6a11.14,11.14,0,0,0-11.1-11.1m0,130.2a14.94,14.94,0,0,1-14.9-14.9V153.6a14.9,14.9,0,1,1,29.8,0V257.8a15,15,0,0,1-14.9,14.9" transform="translate(0 -0.73)"/><path class="a" d="M274.6,140.6a13,13,0,1,1-13,13,13,13,0,0,1,13-13" transform="translate(0 -0.73)"/><path class="b" d="M274.6,142.5a11.1,11.1,0,1,0,11.1,11.1,11.14,11.14,0,0,0-11.1-11.1m0,26a14.9,14.9,0,1,1,14.9-14.9,14.94,14.94,0,0,1-14.9,14.9" transform="translate(0 -0.73)"/><path class="a" d="M313.1,257.8V74.3a13,13,0,0,1,13-13h0a13,13,0,0,1,13,13V257.8a13,13,0,0,1-13,13h0a13,13,0,0,1-13-13" transform="translate(0 -0.73)"/><path class="b" d="M326.1,63.2A11.14,11.14,0,0,0,315,74.3V257.8a11.1,11.1,0,1,0,22.2,0V74.3a11.14,11.14,0,0,0-11.1-11.1m0,209.5a14.94,14.94,0,0,1-14.9-14.9V74.3a14.9,14.9,0,1,1,29.8,0V257.8a15,15,0,0,1-14.9,14.9" transform="translate(0 -0.73)"/><path class="a" d="M326.1,61.4a13,13,0,1,1-13,13,13,13,0,0,1,13-13" transform="translate(0 -0.73)"/><path class="b" d="M326.1,63.2a11.1,11.1,0,1,0,11.1,11.1,11.14,11.14,0,0,0-11.1-11.1m0,26A14.9,14.9,0,1,1,341,74.3a14.94,14.94,0,0,1-14.9,14.9" transform="translate(0 -0.73)"/><path class="b" d="M169.4,180.3a1.92,1.92,0,0,1-1.2-.4,1.88,1.88,0,0,1-.3-2.6L306.3,3.5a1.85,1.85,0,1,1,2.9,2.3L170.9,179.6a2.13,2.13,0,0,1-1.5.7" transform="translate(0 -0.73)"/><path class="b" d="M32.3,117.3a2.35,2.35,0,0,1-.8-.2l-17.4-8a1.88,1.88,0,0,1,1.6-3.4l17.4,8a1.89,1.89,0,0,1-.8,3.6m34.8,16a2.35,2.35,0,0,1-.8-.2l-17.4-8a1.88,1.88,0,1,1,1.6-3.4l17.4,8a1.89,1.89,0,0,1-.8,3.6m34.8,16a2.35,2.35,0,0,1-.8-.2l-17.4-8a1.88,1.88,0,1,1,1.6-3.4l17.4,8a1.89,1.89,0,0,1-.8,3.6m34.9,16a2.35,2.35,0,0,1-.8-.2l-17.4-8a1.88,1.88,0,0,1,1.6-3.4l17.4,8a1.83,1.83,0,0,1,.9,2.5,2,2,0,0,1-1.7,1.1m32.6,15a2.35,2.35,0,0,1-.8-.2l-15.2-7a1.88,1.88,0,1,1,1.6-3.4l15.2,7a1.89,1.89,0,0,1-.8,3.6" transform="translate(0 -0.73)"/><path class="a" d="M169.4,157a21.4,21.4,0,1,1-21.3,21.4A21.34,21.34,0,0,1,169.4,157" transform="translate(0 -0.73)"/><path class="b" d="M169.4,158.9a19.5,19.5,0,1,0,19.5,19.5,19.53,19.53,0,0,0-19.5-19.5m0,42.7a23.2,23.2,0,1,1,23.2-23.2,23.22,23.22,0,0,1-23.2,23.2" transform="translate(0 -0.73)"/><path class="c" d="M169.4,170.3a8.1,8.1,0,1,1-8.1,8.1,8.07,8.07,0,0,1,8.1-8.1" transform="translate(0 -0.73)"/><path class="b" d="M315,36.4a2,2,0,0,1-1.9-1.6l-4-29a7,7,0,0,0-.2-1.3h-1.2l-29.3,1.9a1.9,1.9,0,0,1-.2-3.8L307.35.8c3.6-.4,5.1.8,5.4,4.5l4,28.9a1.9,1.9,0,0,1-1.6,2.1.31.31,0,0,1-.2.1" transform="translate(0 -0.73)"/><path class="b" d="M142.2,290.4a2.28,2.28,0,0,1-1.1-.3,1.83,1.83,0,0,1-.5-2.6l6.7-9.8a1.87,1.87,0,0,1,3.1,2.1l-6.7,9.8a1.76,1.76,0,0,1-1.5.8" transform="translate(0 -0.73)"/><path class="b" d="M168.4,299.7a1.9,1.9,0,0,1-1.9-1.9V285.3a1.9,1.9,0,0,1,1.9-1.9h0a1.9,1.9,0,0,1,1.9,1.9v12.5a1.9,1.9,0,0,1-1.9,1.9Z" transform="translate(0 -0.73)"/><path class="b" d="M194.6,290.4a1.76,1.76,0,0,1-1.5-.8l-6.7-9.8a1.87,1.87,0,1,1,3.1-2.1l6.7,9.8a1.81,1.81,0,0,1-.5,2.6,2.28,2.28,0,0,1-1.1.3" transform="translate(0 -0.73)"/><path class="c" d="M188.3,136.5a1.85,1.85,0,0,1-.7-.2,1.13,1.13,0,0,1-.2-1.6l6.4-8.1a1.14,1.14,0,1,1,1.8,1.4l-6.4,8.1a1,1,0,0,1-.9.4" transform="translate(0 -0.73)"/><path class="c" d="M197.9,124.5a1.85,1.85,0,0,1-.7-.2,1.13,1.13,0,0,1-.2-1.6l2.5-3.1a1.14,1.14,0,0,1,1.8,1.4l-2.5,3.1a1.49,1.49,0,0,1-.9.4" transform="translate(0 -0.73)"/><path class="c" d="M182.7,143.6a1.85,1.85,0,0,1-.7-.2,1.13,1.13,0,0,1-.2-1.6l2.5-3.1a1.14,1.14,0,1,1,1.8,1.4l-2.5,3.1a1.27,1.27,0,0,1-.9.4" transform="translate(0 -0.73)"/><path class="c" d="M293.4,41.1a1.85,1.85,0,0,1-.7-.2,1.13,1.13,0,0,1-.2-1.6l6.4-8a1.14,1.14,0,1,1,1.8,1.4l-6.4,8a1.22,1.22,0,0,1-.9.4" transform="translate(0 -0.73)"/><path class="c" d="M302.9,29.1a1.85,1.85,0,0,1-.7-.2,1.13,1.13,0,0,1-.2-1.6l2.5-3.1a1.14,1.14,0,1,1,1.8,1.4l-2.5,3.1a1,1,0,0,1-.9.4" transform="translate(0 -0.73)"/><path class="c" d="M287.8,48.2a1.85,1.85,0,0,1-.7-.2,1.13,1.13,0,0,1-.2-1.6l2.5-3.1a1.14,1.14,0,0,1,1.8,1.4l-2.5,3.1a1.8,1.8,0,0,1-.9.4" transform="translate(0 -0.73)"/><path class="a" d="M138.7,131.4a9.34,9.34,0,1,1,.5,13.2,9.33,9.33,0,0,1-.5-13.2" transform="translate(0 -0.73)"/><path class="c" d="M141.1,133.7a5.94,5.94,0,1,0,8.4-.3,5.81,5.81,0,0,0-8.4.3m4.4,16.7a12.34,12.34,0,0,1-8.6-3.4,12.68,12.68,0,0,1-.7-18h0a12.74,12.74,0,1,1,9.3,21.4" transform="translate(0 -0.73)"/><path class="c" d="M32.4,187.4a3,3,0,0,0-2.1,5.1,2.9,2.9,0,0,0,4.1-4.1,2.21,2.21,0,0,0-2-1m0,8.1a5.23,5.23,0,0,1-3.7-8.9,5.16,5.16,0,1,1,7.3,7.3,4.84,4.84,0,0,1-3.6,1.6" transform="translate(0 -0.73)"/><path class="c" d="M150.9,209.8a1.14,1.14,0,0,1-.8-.3,1.22,1.22,0,0,1,0-1.6l3.2-3.2a1.13,1.13,0,1,1,1.6,1.6l-3.2,3.2a1.14,1.14,0,0,1-.8.3" transform="translate(0 -0.73)"/><path class="c" d="M142,218.7a1.14,1.14,0,0,1-.8-.3,1.22,1.22,0,0,1,0-1.6l3.2-3.2a1.13,1.13,0,0,1,1.6,1.6l-3.2,3.2a1.14,1.14,0,0,1-.8.3" transform="translate(0 -0.73)"/><path class="c" d="M145.3,209.8a1.14,1.14,0,0,1-.8-.3l-3.2-3.2a1.13,1.13,0,0,1,1.6-1.6l3.2,3.2a1.22,1.22,0,0,1,0,1.6,1.6,1.6,0,0,1-.8.3" transform="translate(0 -0.73)"/><path class="c" d="M154.1,218.7a1.14,1.14,0,0,1-.8-.3l-3.2-3.2a1.13,1.13,0,1,1,1.6-1.6l3.2,3.2a1.22,1.22,0,0,1,0,1.6,1.14,1.14,0,0,1-.8.3" transform="translate(0 -0.73)"/><path class="a" d="M225.5,142.3a4,4,0,1,1,0,5.6,3.87,3.87,0,0,1,0-5.6" transform="translate(0 -0.73)"/><path class="b" d="M226.3,143.1a2.83,2.83,0,1,0,4,0,2.84,2.84,0,0,0-4,0m2,7.1a4.91,4.91,0,0,1-3.6-1.5,5.09,5.09,0,1,1,7.2,0,4.75,4.75,0,0,1-3.6,1.5" transform="translate(0 -0.73)"/><path class="b" d="M231.1,143.4a1.14,1.14,0,0,1-.8-.3,1.22,1.22,0,0,1,0-1.6l4.9-5a1.13,1.13,0,0,1,1.6,1.6l-4.9,5a1.14,1.14,0,0,1-.8.3" transform="translate(0 -0.73)"/><path class="b" d="M220.6,154a1.14,1.14,0,0,1-.8-.3,1.22,1.22,0,0,1,0-1.6l4.9-5a1.13,1.13,0,1,1,1.6,1.6l-4.9,5a1.6,1.6,0,0,1-.8.3" transform="translate(0 -0.73)"/><path class="b" d="M225.5,143.4a1.14,1.14,0,0,1-.8-.3l-4.9-5a1.13,1.13,0,0,1,1.6-1.6l4.9,5a1.22,1.22,0,0,1,0,1.6,1.14,1.14,0,0,1-.8.3" transform="translate(0 -0.73)"/><path class="b" d="M236.1,154a1.14,1.14,0,0,1-.8-.3l-4.9-5a1.13,1.13,0,1,1,1.6-1.6l4.9,5a1.22,1.22,0,0,1,0,1.6,1.14,1.14,0,0,1-.8.3" transform="translate(0 -0.73)"/><path class="c" d="M331.4,51.9h-.3a22.51,22.51,0,0,0-10-.1,1.12,1.12,0,1,1-.4-2.2,25.51,25.51,0,0,1,11,.1,1.06,1.06,0,0,1,.8,1.4,1.17,1.17,0,0,1-1.1.8" transform="translate(0 -0.73)"/><path class="c" d="M339.3,55.8a.91.91,0,0,1-.7-.3,15.67,15.67,0,0,0-3-2,1.12,1.12,0,1,1,1-2,15.65,15.65,0,0,1,3.4,2.3,1.12,1.12,0,0,1,.1,1.6,1.23,1.23,0,0,1-.8.4" transform="translate(0 -0.73)"/><path class="c" d="M312.9,55.6a1.15,1.15,0,0,1-.8-2,15.23,15.23,0,0,1,3.4-2.2,1.12,1.12,0,0,1,1,2,15.28,15.28,0,0,0-3,1.9.71.71,0,0,1-.6.3" transform="translate(0 -0.73)"/><path class="b" d="M279.9,132h-.3a22.51,22.51,0,0,0-10-.1,1.12,1.12,0,1,1-.4-2.2,25.51,25.51,0,0,1,11,.1,1.06,1.06,0,0,1,.8,1.4,1.33,1.33,0,0,1-1.1.8" transform="translate(0 -0.73)"/><path class="b" d="M287.7,135.8a.91.91,0,0,1-.7-.3,15.67,15.67,0,0,0-3-2,1.12,1.12,0,1,1,1-2,15.65,15.65,0,0,1,3.4,2.3,1.12,1.12,0,0,1,.1,1.6c-.1.3-.4.4-.8.4" transform="translate(0 -0.73)"/><path class="b" d="M261.4,135.6a1.15,1.15,0,0,1-.8-2,15.23,15.23,0,0,1,3.4-2.2,1.12,1.12,0,0,1,1,2,15.28,15.28,0,0,0-3,1.9.71.71,0,0,1-.6.3" transform="translate(0 -0.73)"/><path class="c" d="M228.3,174.4H228a22.51,22.51,0,0,0-10-.1,1.12,1.12,0,1,1-.4-2.2,25.51,25.51,0,0,1,11,.1,1.06,1.06,0,0,1,.8,1.4,1.21,1.21,0,0,1-1.1.8" transform="translate(0 -0.73)"/><path class="c" d="M236.2,178.2a.91.91,0,0,1-.7-.3,15.67,15.67,0,0,0-3-2,1.12,1.12,0,1,1,1-2,15.65,15.65,0,0,1,3.4,2.3,1.12,1.12,0,0,1,.1,1.6c-.1.3-.4.4-.8.4" transform="translate(0 -0.73)"/><path class="c" d="M209.9,178a1.15,1.15,0,0,1-.8-2,15.23,15.23,0,0,1,3.4-2.2,1.12,1.12,0,1,1,1,2,15.28,15.28,0,0,0-3,1.9.71.71,0,0,1-.6.3" transform="translate(0 -0.73)"/><path class="b" d="M101.7,174.4a1.14,1.14,0,0,1-.8-.3,1.22,1.22,0,0,1,0-1.6l3.2-3.2a1.13,1.13,0,0,1,1.6,1.6l-3.2,3.2a1.91,1.91,0,0,1-.8.3" transform="translate(0 -0.73)"/><path class="b" d="M92.8,183.2a1.14,1.14,0,0,1-.8-.3,1.22,1.22,0,0,1,0-1.6l3.2-3.2a1.13,1.13,0,1,1,1.6,1.6l-3.2,3.2a1.14,1.14,0,0,1-.8.3" transform="translate(0 -0.73)"/><path class="b" d="M96.1,174.4a1.14,1.14,0,0,1-.8-.3l-3.2-3.2a1.13,1.13,0,0,1,1.6-1.6l3.2,3.2a1.22,1.22,0,0,1,0,1.6,4.12,4.12,0,0,1-.8.3" transform="translate(0 -0.73)"/><path class="b" d="M104.9,183.2a1.14,1.14,0,0,1-.8-.3l-3.2-3.2a1.13,1.13,0,1,1,1.6-1.6l3.2,3.2a1.22,1.22,0,0,1,0,1.6,1.14,1.14,0,0,1-.8.3" transform="translate(0 -0.73)"/><path class="b" d="M119.9,127.8a2.9,2.9,0,0,0,4.1,4.1,2.9,2.9,0,0,0,0-4.2,3.06,3.06,0,0,0-4.1.1m2,7.2a5.14,5.14,0,0,1-3.7-1.5,5.19,5.19,0,0,1,0-7.3,5.23,5.23,0,0,1,7.4,7.4,5.49,5.49,0,0,1-3.7,1.4" transform="translate(0 -0.73)"/><path class="c" d="M187.5,206.9a3,3,0,0,0-2.1,5.1,2.9,2.9,0,0,0,4.1-4.1,2.21,2.21,0,0,0-2-1m0,8.1a5.23,5.23,0,0,1-3.7-8.9,5.16,5.16,0,0,1,7.3,7.3,4.84,4.84,0,0,1-3.6,1.6" transform="translate(0 -0.73)"/></svg>