<svg xmlns="http://www.w3.org/2000/svg" width="758.9" height="348.7" viewBox="0 0 758.9 348.7"><defs><style>.a{fill:#161614;}.a,.b,.c{fill-rule:evenodd;}.b{fill:#10069f;}.c{fill:#f05;}</style></defs><polygon class="a" points="257 297.9 255 298.7 250 286.5 252 285.7 257 297.9"/><path class="a" d="M264.2,284.8a3.64,3.64,0,0,1,2.2,2l3,5.9-2,1-2.7-5.3c-.8-1.6-1.9-2.1-3.2-1.4a2.48,2.48,0,0,0-1.4,1.6,3.09,3.09,0,0,0,.4,2.5l2.5,4.8-2,1-4.6-9.1,1.7-.9.9,1.5a3.08,3.08,0,0,1,.6-1.9,4,4,0,0,1,1.6-1.3,3.59,3.59,0,0,1,3-.4" transform="translate(0 -0.3)"/><path class="a" d="M278.4,286.5a7.46,7.46,0,0,1-.7,1.2,4,4,0,0,1-1.2,1,3.22,3.22,0,0,1-2.3.6,3,3,0,0,1-1.9-1.4l-3.1-4.9-1.7,1-.9-1.5,1.7-1-1.3-2,1.5-1.7,1.6,2.6,3-1.9.9,1.5-3,1.9,2.9,4.6a1.27,1.27,0,0,0,.9.7,1.13,1.13,0,0,0,1.1-.3,2.83,2.83,0,0,0,1.1-1.5Z" transform="translate(0 -0.3)"/><path class="a" d="M278.4,277.5a3.42,3.42,0,0,0,.5,2.2l4.4-3.3a3.68,3.68,0,0,0-1.9-1.1,2.51,2.51,0,0,0-1.9.5,2.45,2.45,0,0,0-1.1,1.7Zm7.5-.9-6,4.5a3.09,3.09,0,0,0,2,1.1,2.81,2.81,0,0,0,2-.6,2.76,2.76,0,0,0,1.1-1.3,1.69,1.69,0,0,0,.1-1.4l1.9-.5q.45,2.55-2.1,4.5A5,5,0,0,1,281,284a5.4,5.4,0,0,1-3.4-2.3,5.59,5.59,0,0,1-1.3-3.9,4.7,4.7,0,0,1,2.1-3.3,4.51,4.51,0,0,1,3.7-1,5.51,5.51,0,0,1,3.2,2.2A3.49,3.49,0,0,1,285.9,276.6Z" transform="translate(0 -0.3)"/><path class="a" d="M297.9,274.9a1.41,1.41,0,0,0-.1-1.4.83.83,0,0,0-.8-.3,2.4,2.4,0,0,0-1.2.7l-2.1,1.9a2.1,2.1,0,0,0-.8,1.1,1,1,0,0,0,.2.9,1.09,1.09,0,0,0,1.3.3,5.78,5.78,0,0,0,2-1.3,5.25,5.25,0,0,0,1.5-1.9Zm-10.3-5.2a1.74,1.74,0,0,0,.5,1.5,2,2,0,0,0,1.4.6,2.55,2.55,0,0,0,2.3-2.1,1.74,1.74,0,0,0-.5-1.5,1.82,1.82,0,0,0-1.4-.6A2.64,2.64,0,0,0,287.6,269.7Zm9.5,1.5a2.32,2.32,0,0,1,1.9.9,2.41,2.41,0,0,1,.7,1.8,3.7,3.7,0,0,1-.6,2.1,8.7,8.7,0,0,1-1.7,2.1,7,7,0,0,1-3.2,1.9,2.26,2.26,0,0,1-2.2-.6,1.85,1.85,0,0,1-.5-1.2,3,3,0,0,1,.5-1.5,2.88,2.88,0,0,1-1.3.1,2.38,2.38,0,0,1-1.1-.6,2.11,2.11,0,0,1-.2-2.6,3.09,3.09,0,0,1-3.1-1.1,3.81,3.81,0,0,1-.8-1.7,3.52,3.52,0,0,1,.3-2,7,7,0,0,1,1.5-1.9,4.18,4.18,0,0,1,1.8-1.1,2.8,2.8,0,0,1,.7-3.7l1.4,1a3.78,3.78,0,0,0-1,1.2,1.45,1.45,0,0,0-.1,1.1,2.62,2.62,0,0,1,1.5.2,3.81,3.81,0,0,1,1.3.9,3,3,0,0,1,.8,2.7,5.52,5.52,0,0,1-1.8,2.9,7.1,7.1,0,0,1-1.4,1,1.14,1.14,0,0,0-.3.8.91.91,0,0,0,.3.7,1.08,1.08,0,0,0,.7.3,1.8,1.8,0,0,0,.9-.4l2.5-2.3A6,6,0,0,1,297.1,271.2Z" transform="translate(0 -0.3)"/><path class="a" d="M297.3,257.4l1.2,1.6a4.13,4.13,0,0,0-1.1.7,2.38,2.38,0,0,0-.6,1.1,2.2,2.2,0,0,0,.1,1.4,3.07,3.07,0,0,0,1,1.5l4,3.7-1.5,1.6-7.5-7,1.3-1.4,1.5,1.1a3.36,3.36,0,0,1,.7-3.8c.2-.1.5-.3.9-.5" transform="translate(0 -0.3)"/><path class="a" d="M308.2,257.7a1.6,1.6,0,0,0-.5-1.6l-.9-.8-1.2,2a4.42,4.42,0,0,0-.6,1.6,1,1,0,0,0,.4,1,1,1,0,0,0,.9.3,2.07,2.07,0,0,0,1-.6,3.72,3.72,0,0,0,.9-1.9Zm3.4-3,1,1.1a2.59,2.59,0,0,1-.7,1.1,2,2,0,0,1-1.2.8,1.52,1.52,0,0,1-1.3-.3,3.67,3.67,0,0,1-.1,1.8,4.18,4.18,0,0,1-1.1,1.8,3.84,3.84,0,0,1-2.2,1.3,2.38,2.38,0,0,1-2.1-.7,2.35,2.35,0,0,1-.8-2.1,5.63,5.63,0,0,1,1.2-3l1.5-2.2-.4-.4a2,2,0,0,0-1.5-.6,2.13,2.13,0,0,0-1.5.7,2.45,2.45,0,0,0-.4,3.2l-1.8.6a3.36,3.36,0,0,1-.4-2.4,4.8,4.8,0,0,1,1.4-2.5,4.59,4.59,0,0,1,2.8-1.7,3.28,3.28,0,0,1,2.8,1l3.4,3.1c.1.2.3.2.5.3a.55.55,0,0,0,.5-.3C311.3,255.1,311.5,254.9,311.6,254.7Z" transform="translate(0 -0.3)"/><path class="a" d="M314.5,242.6l-.8,2.1a2.46,2.46,0,0,0-3.1.5,2.58,2.58,0,0,0-.7,2.2,4.12,4.12,0,0,0,1.5,2.4,4,4,0,0,0,2.5,1.2,2.92,2.92,0,0,0,2.9-2.5,2.77,2.77,0,0,0-.5-1.6l1.9-1a4.31,4.31,0,0,1,.6,2.7,5,5,0,0,1-1.4,2.7,4.7,4.7,0,0,1-3.6,1.8,6.37,6.37,0,0,1-5.8-5.3,4.76,4.76,0,0,1,1.5-3.7,3.83,3.83,0,0,1,5-1.5" transform="translate(0 -0.3)"/><path class="a" d="M323.2,244.3l-1.5,1.6-7.6-6.9,1.5-1.6Zm-10.5-6.8a1.28,1.28,0,0,1-1-.4,1.25,1.25,0,0,1,0-2,1.7,1.7,0,0,1,1-.6,1.28,1.28,0,0,1,1,.4,1.25,1.25,0,0,1,0,2A1.22,1.22,0,0,1,312.7,237.5Z" transform="translate(0 -0.3)"/><path class="a" d="M321.3,234.9a5.27,5.27,0,0,0,3.9,3.6,2.9,2.9,0,0,0,2.9-2.9v-.3a5.12,5.12,0,0,0-3.9-3.6,2.9,2.9,0,0,0-2.9,2.9v.3Zm3-5.2a6.37,6.37,0,0,1,5.8,5.3,5.62,5.62,0,0,1-5.1,5.5,6.37,6.37,0,0,1-5.8-5.3A5.79,5.79,0,0,1,324.3,229.7Zm-5.4-3.3,1.2,3.8-1.1,1.2-1.5-3.4Z" transform="translate(0 -0.3)"/><path class="a" d="M332.3,220.4a3.93,3.93,0,0,1,2.8,1.1L340,226l-1.5,1.6-4.4-4c-1.3-1.2-2.5-1.3-3.5-.2a2.49,2.49,0,0,0-.7,2,3,3,0,0,0,1.2,2.2l4,3.7-1.5,1.6-7.5-6.9,1.3-1.5,1.3,1.1a3.38,3.38,0,0,1-.2-2,4,4,0,0,1,1-1.8,4.7,4.7,0,0,1,2.8-1.4" transform="translate(0 -0.3)"/><path class="a" d="M87.1,244.7a6.51,6.51,0,0,1-2.6-2.6,6.65,6.65,0,0,1-.9-3.4,5.71,5.71,0,0,1,1-3.1,9,9,0,0,1,6.5-3.6,6,6,0,0,1,3.2.7,7.18,7.18,0,0,1,2.4,2.5,6.65,6.65,0,0,1,.9,3.4,5,5,0,0,1-1.2,2.9l-1.8-1.4a3.52,3.52,0,0,0,1-1.9,2.88,2.88,0,0,0-.5-2,3.77,3.77,0,0,0-2.6-2,5.63,5.63,0,0,0-3.8.8,5.28,5.28,0,0,0-2.7,2.8,3.83,3.83,0,0,0,.3,3.3,3.37,3.37,0,0,0,3.9,1.8l.4,2.2a4.68,4.68,0,0,1-3.5-.4" transform="translate(0 -0.3)"/><path class="a" d="M97.5,247.9a5.15,5.15,0,0,0-4.4,3.1,3,3,0,0,0,2.3,3.5h.2a4.89,4.89,0,0,0,4.3-3.1,3,3,0,0,0-2.4-3.5Zm4.4,4.1a6.26,6.26,0,0,1-6.4,4.5,5.66,5.66,0,0,1-4.3-6.1,6.26,6.26,0,0,1,6.4-4.5,5.69,5.69,0,0,1,4.3,6.1Z" transform="translate(0 -0.3)"/><path class="a" d="M110.5,261.6a4,4,0,0,1-1.4,2.7l-5,4.4-1.5-1.7,4.5-3.9c1.4-1.2,1.6-2.3.6-3.4a3,3,0,0,0-1.9-1,3.1,3.1,0,0,0-2.4,1l-4.1,3.6-1.5-1.7,7.7-6.7,1.3,1.5-1.2,1.2a3.38,3.38,0,0,1,2,.1,5.23,5.23,0,0,1,1.7,1.2,4.47,4.47,0,0,1,1.2,2.7" transform="translate(0 -0.3)"/><path class="a" d="M108.1,272.3a4,4,0,0,1-.2-2.4l1.9.1a2.78,2.78,0,0,0,0,1.8,4.52,4.52,0,0,0,1.1,1.7,4.19,4.19,0,0,0,1.4.9,1.16,1.16,0,0,0,1-.2,1,1,0,0,0,.2-.9,9.15,9.15,0,0,0-.9-1.7,8.47,8.47,0,0,1-1.5-3,2.58,2.58,0,0,1,.7-2.1,2.75,2.75,0,0,1,1.5-.8,3.13,3.13,0,0,1,1.9.2,6.25,6.25,0,0,1,2,1.3,5.33,5.33,0,0,1,1.6,2.3,3.94,3.94,0,0,1-.1,2.4l-1.9-.2a3.21,3.21,0,0,0,.2-1.7,3.77,3.77,0,0,0-.9-1.5,2.48,2.48,0,0,0-1.4-.8,1.09,1.09,0,0,0-1,.2,1,1,0,0,0-.2,1,6.37,6.37,0,0,0,1,1.8,8,8,0,0,1,1.5,2.9,2.7,2.7,0,0,1-.7,2.1,2.5,2.5,0,0,1-2.4.8,5.87,5.87,0,0,1-3-1.6,10.17,10.17,0,0,1-1.8-2.6" transform="translate(0 -0.3)"/><path class="a" d="M121.8,283.8a5.07,5.07,0,0,1-1.3-.2,3.53,3.53,0,0,1-1.3-.8,3.36,3.36,0,0,1-1.3-2,3.17,3.17,0,0,1,.7-2.3l3.7-4.5-1.5-1.2,1.1-1.3,1.5,1.2,1.5-1.9,2.1.9-1.9,2.3,2.8,2.3-1.1,1.3-2.8-2.3-3.4,4.2a1.5,1.5,0,0,0-.4,1.1,2.07,2.07,0,0,0,.6,1,2.16,2.16,0,0,0,1.7.5Z" transform="translate(0 -0.3)"/><path class="a" d="M135,281.4l-1.5,1.5a2.56,2.56,0,0,0-2.1-1.4,3.19,3.19,0,0,0-1.4.3,3.74,3.74,0,0,0-1.3,1.2l-3.1,4.4-1.8-1.3,5.9-8.4,1.5,1.1-.9,1.6a3.15,3.15,0,0,1,3.8.2,2.36,2.36,0,0,1,.9.8" transform="translate(0 -0.3)"/><path class="a" d="M145.2,287.4l-5.1,8.9-1.7-1,.7-1.5a3.83,3.83,0,0,1-4.1-.2,3.92,3.92,0,0,1-1.9-2.1,3.31,3.31,0,0,1,.5-2.9l3.4-5.9,1.9,1.1-3.1,5.3a2.62,2.62,0,0,0-.5,1.9,2.37,2.37,0,0,0,1.1,1.3,2.82,2.82,0,0,0,2.2.3,3.33,3.33,0,0,0,1.9-1.6l2.8-4.8Z" transform="translate(0 -0.3)"/><path class="a" d="M149.3,287.1a1.38,1.38,0,0,1,.1-1.1,1.14,1.14,0,0,1,.8-.7,1.39,1.39,0,0,1,1.1.2,1.09,1.09,0,0,1,.8.8,1.42,1.42,0,0,1-.1,1.1,1.14,1.14,0,0,1-.8.7,2,2,0,0,1-1.1-.1A3.45,3.45,0,0,1,149.3,287.1Zm-3.4,12.1-2-1,4.5-9.2,2,1Z" transform="translate(0 -0.3)"/><path class="a" d="M159.4,293.8l-1.1,1.7a2.59,2.59,0,0,0-1.1-.7,2.74,2.74,0,0,0-1.3-.2,3.1,3.1,0,0,0-1.3.6,4.51,4.51,0,0,0-1,1.4l-2.1,5-2-.8,3.9-9.5,1.7.7-.5,1.8a3.36,3.36,0,0,1,3.8-.7c.4.3.8.5,1,.7" transform="translate(0 -0.3)"/><path class="a" d="M81.5,123.8a2,2,0,0,0-1.4-1.3c-1.5-.6-2.5,0-3.2,1.8l-1,2.5,4.4,1.7,1-2.5a3.36,3.36,0,0,0,.2-2.2Zm-3.9-3.3a4.44,4.44,0,0,1,5.8,2.3,5.26,5.26,0,0,1-.2,3.7l-1.1,2.8,4.7,1.9-.8,2-12.6-4.9,1.9-4.8A4.76,4.76,0,0,1,77.6,120.5Z" transform="translate(0 -0.3)"/><path class="a" d="M88.7,119a1.23,1.23,0,0,0,1,.2c.2,0,.5-.3.6-.6a3.08,3.08,0,0,0,.3-1.3l1.5,1a3.29,3.29,0,0,1-.4,1.7,2.76,2.76,0,0,1-1.5,1.5,3.1,3.1,0,0,1-2.3-.4l-11-5.2.9-2Z" transform="translate(0 -0.3)"/><path class="a" d="M94,111.3a1.76,1.76,0,0,0-.8-1.5l-1.1-.6-.7,2.2a4.67,4.67,0,0,0-.3,1.7,1.22,1.22,0,0,0,1.6,1,2,2,0,0,0,.8-.8,5.34,5.34,0,0,0,.5-2Zm2.6-3.8,1.2.9a4.23,4.23,0,0,1-.4,1.2,2.41,2.41,0,0,1-1,1,1.7,1.7,0,0,1-1.4,0,2.78,2.78,0,0,1,.3,1.8,4.79,4.79,0,0,1-.7,2,3.92,3.92,0,0,1-1.8,1.8,2.46,2.46,0,0,1-2.2-.2,2.59,2.59,0,0,1-1.3-1.9,5.86,5.86,0,0,1,.5-3.2l.9-2.5-.5-.3a1.8,1.8,0,0,0-1.6-.2,2.16,2.16,0,0,0-1.2,1.1,2.44,2.44,0,0,0,.3,3.2l-1.6,1a3.73,3.73,0,0,1-1-2.3,5.55,5.55,0,0,1,.7-2.8,4.89,4.89,0,0,1,2.4-2.3,3.26,3.26,0,0,1,2.9.3l4,2.3a.66.66,0,0,0,.6.1c.2-.1.4-.2.4-.4C96.4,108,96.5,107.8,96.6,107.5Z" transform="translate(0 -0.3)"/><path class="a" d="M95.6,95a3.75,3.75,0,0,1,2.9.7l5.5,3.8-1.3,1.8L97.8,98c-1.5-1-2.6-.9-3.5.3a3,3,0,0,0-.5,2.1,3.59,3.59,0,0,0,1.5,2.1l4.5,3.1-1.2,1.8-8.4-5.9,1.1-1.6,1.5.9a3.44,3.44,0,0,1-.4-2,5,5,0,0,1,.8-2A4,4,0,0,1,95.6,95" transform="translate(0 -0.3)"/><path class="a" d="M106.9,95.9l-1.4,1.7-8-6.4,1.4-1.7ZM96,89.9a1.49,1.49,0,0,1-1-.3,1.19,1.19,0,0,1-.5-.9,1.5,1.5,0,0,1,.4-1.1,1.8,1.8,0,0,1,.9-.6,1.69,1.69,0,0,1,1,.3,1.8,1.8,0,0,1,.6.9,1.5,1.5,0,0,1-.4,1.1A2.66,2.66,0,0,1,96,89.9Z" transform="translate(0 -0.3)"/><path class="a" d="M115.6,86l-1.5,1.6-7.5-6.9,1.5-1.6Zm-10.5-6.7a1.28,1.28,0,0,1-1-.4,1.25,1.25,0,0,1,0-2,1.7,1.7,0,0,1,1-.6,1.28,1.28,0,0,1,1,.4,1.23,1.23,0,0,1,.5,1,1.39,1.39,0,0,1-.5,1A1.33,1.33,0,0,1,105.1,79.3Zm-2,5.3,2.3-2.4,1.3,1.2-2.2,2.4,6.3,5.8-1.5,1.6L103,87.4l-1.3,1.4-1.3-1.2,1.3-1.4-1.1-1a3,3,0,0,1-1.1-2.3,3.72,3.72,0,0,1,1.2-2.5,3.11,3.11,0,0,1,.9-.7,1.14,1.14,0,0,1,.8-.3l.9,1.4a1.69,1.69,0,0,0-1,.7,1.6,1.6,0,0,0,0,2.5Z" transform="translate(0 -0.3)"/><path class="a" d="M119.1,72.7l-1,2a2.31,2.31,0,0,0-3.1.2,2.81,2.81,0,0,0-1,2.1,4.2,4.2,0,0,0,1.2,2.5,4.42,4.42,0,0,0,2.3,1.5,2.87,2.87,0,0,0,3.1-2.2,2.54,2.54,0,0,0-.4-1.7l1.9-.8a4.24,4.24,0,0,1,.3,2.7,4.73,4.73,0,0,1-1.6,2.5A5.37,5.37,0,0,1,117,83a6.37,6.37,0,0,1-5.3-5.8,5,5,0,0,1,1.8-3.6c2-1.5,3.8-1.8,5.6-.9" transform="translate(0 -0.3)"/><path class="a" d="M128.6,72.5a1.54,1.54,0,0,0-.2-1.6l-.7-1-1.5,1.7a4.19,4.19,0,0,0-.9,1.4,1.09,1.09,0,0,0,.2,1.1,1,1,0,0,0,.8.5,2.1,2.1,0,0,0,1.1-.4,6.57,6.57,0,0,0,1.2-1.7Zm3.9-2.4.7,1.3a2.84,2.84,0,0,1-.9,1,3.1,3.1,0,0,1-1.3.6,2.11,2.11,0,0,1-1.3-.5,3.29,3.29,0,0,1-.4,1.7,7,7,0,0,1-1.4,1.6,3.52,3.52,0,0,1-2.3.9,2.28,2.28,0,0,1-1.9-1,2.44,2.44,0,0,1-.4-2.2,5.93,5.93,0,0,1,1.7-2.7l1.8-1.9-.3-.4a2,2,0,0,0-1.3-.9,1.94,1.94,0,0,0-1.6.5,2.61,2.61,0,0,0-1,3.1l-1.9.3a3.58,3.58,0,0,1,0-2.5,5.78,5.78,0,0,1,1.8-2.3,5.64,5.64,0,0,1,3.1-1.2,3.25,3.25,0,0,1,2.6,1.5l2.8,3.7a1,1,0,0,0,.5.4,1.42,1.42,0,0,0,.6-.2A1,1,0,0,1,132.5,70.1Z" transform="translate(0 -0.3)"/><path class="a" d="M134.4,58.5l.8,1.9a2.57,2.57,0,0,0-1.2.5,2.37,2.37,0,0,0-1.1,2.4,4.42,4.42,0,0,0,.6,1.6l2.9,4.6-1.8,1.2L129,62l1.6-1,1.1,1.5a3.23,3.23,0,0,1,1.6-3.5,2.7,2.7,0,0,1,1.1-.5" transform="translate(0 -0.3)"/><polygon class="a" points="312.4 90.5 309.5 93.1 313.5 97.5 312.1 98.8 308.1 94.4 303.8 98.3 302.4 96.7 312.3 87.6 318.9 94.8 317.5 96 312.4 90.5"/><path class="a" d="M317.7,101.9a3.77,3.77,0,0,0-2.1.7l3.7,4.1a3.67,3.67,0,0,0,.9-2,2.27,2.27,0,0,0-.7-1.8,2.53,2.53,0,0,0-1.8-1Zm1.8,7.4-5.1-5.5a4,4,0,0,0-.9,2.1,3.18,3.18,0,0,0,.8,2,4.51,4.51,0,0,0,1.4,1,1.7,1.7,0,0,0,1.4,0l.7,1.9a4.49,4.49,0,0,1-4.7-1.6,4.76,4.76,0,0,1-1.5-3.7,5.31,5.31,0,0,1,2-3.7,5.82,5.82,0,0,1,3.8-1.7,4.65,4.65,0,0,1,3.5,1.8,5,5,0,0,1,1.4,3.5,5.68,5.68,0,0,1-1.8,3.4A1.91,1.91,0,0,0,319.5,109.3Z" transform="translate(0 -0.3)"/><path class="a" d="M325.7,110.6a3.77,3.77,0,0,0-2.1.7l3.7,4.1a3.67,3.67,0,0,0,.9-2,2.27,2.27,0,0,0-.7-1.8,2.94,2.94,0,0,0-1.8-1m1.8,7.4-5.1-5.5a4,4,0,0,0-.9,2.1,3.18,3.18,0,0,0,.8,2,4.51,4.51,0,0,0,1.4,1,1.7,1.7,0,0,0,1.4,0l.7,1.9a4.49,4.49,0,0,1-4.7-1.6,4.76,4.76,0,0,1-1.5-3.7,5.31,5.31,0,0,1,2-3.7,5.82,5.82,0,0,1,3.8-1.7,4.65,4.65,0,0,1,3.5,1.8,5,5,0,0,1,1.4,3.5,5.68,5.68,0,0,1-1.8,3.4,3.13,3.13,0,0,0-1,.5" transform="translate(0 -0.3)"/><path class="a" d="M332.4,126a4.42,4.42,0,0,0,2.4-1.1l.2-.2a3.6,3.6,0,0,0,1.3-2.3,2.79,2.79,0,0,0-2.5-3h-.3a3.7,3.7,0,0,0-2.4,1.2,4.25,4.25,0,0,0-1.4,2.3,2.65,2.65,0,0,0,2.4,3C332.1,126,332.2,126,332.4,126Zm11.1-6.2-11,10-1.3-1.4,1.3-1.3a3.4,3.4,0,0,1-2,0,3.6,3.6,0,0,1-1.8-1.2,4.23,4.23,0,0,1-1.2-3.4,5.92,5.92,0,0,1,2-3.5,6.48,6.48,0,0,1,3.7-1.8,4.13,4.13,0,0,1,3.3,1.5,4,4,0,0,1,1,1.8,4.08,4.08,0,0,1-.1,1.9l4.6-4.2Z" transform="translate(0 -0.3)"/><path class="a" d="M341.3,135.8a4.85,4.85,0,0,0,3.9-3.5,2.79,2.79,0,0,0-2.5-3h-.1a3.66,3.66,0,0,0-2.3,1l-.6.5a4.77,4.77,0,0,0-1.2,2.2,2.37,2.37,0,0,0,.7,2,3.44,3.44,0,0,0,2.1.8m6-3.2a5.59,5.59,0,0,1-2.1,3.5,5.8,5.8,0,0,1-3.7,1.7,4.13,4.13,0,0,1-3.3-1.5,3.48,3.48,0,0,1-1-2,3.38,3.38,0,0,1,.2-2l-1.5,1.2-1.3-1.4,11-10,1.5,1.6-4.6,4.2a3.1,3.1,0,0,1,1.9.1,3.86,3.86,0,0,1,1.7,1.1,4.33,4.33,0,0,1,1.2,3.5" transform="translate(0 -0.3)"/><path class="a" d="M348.2,144a1.53,1.53,0,0,0,1.6-.3l.9-.8-1.8-1.3a3.61,3.61,0,0,0-1.5-.8,1.13,1.13,0,0,0-1.1.3,1,1,0,0,0-.4.9,2.34,2.34,0,0,0,.5,1,5.24,5.24,0,0,0,1.8,1Zm2.7,3.6-1.2.9a2,2,0,0,1-1-.8,2.09,2.09,0,0,1-.7-1.3,2,2,0,0,1,.4-1.3,2.89,2.89,0,0,1-1.8-.3,5.15,5.15,0,0,1-1.7-1.3,3.84,3.84,0,0,1-1.1-2.3,2.17,2.17,0,0,1,.8-2,2.52,2.52,0,0,1,2.2-.6,6.06,6.06,0,0,1,2.9,1.4l2.1,1.6.4-.4a1.91,1.91,0,0,0,.7-1.4,2,2,0,0,0-.6-1.5,2.37,2.37,0,0,0-3.1-.7l-.5-1.9a3.57,3.57,0,0,1,2.5-.2,4.87,4.87,0,0,1,2.4,1.6,5.42,5.42,0,0,1,1.5,2.9,3.26,3.26,0,0,1-1.2,2.7l-3.5,3.1a.55.55,0,0,0-.3.5.86.86,0,0,0,.3.6A1,1,0,0,0,350.9,147.6Z" transform="translate(0 -0.3)"/><path class="a" d="M362.7,151.5l-2-1a2.59,2.59,0,0,0-2.3-4,4.87,4.87,0,0,0-2.5,1.2,4.42,4.42,0,0,0-1.5,2.3,3,3,0,0,0,2.3,3.1,2.54,2.54,0,0,0,1.7-.4l.9,1.9a4.16,4.16,0,0,1-2.7.3,4.21,4.21,0,0,1-2.5-1.6,4.76,4.76,0,0,1-1.5-3.7,6.28,6.28,0,0,1,5.8-5.3,5,5,0,0,1,3.6,1.8c1.3,1.9,1.6,3.6.7,5.4" transform="translate(0 -0.3)"/><polygon class="a" points="365.2 158.1 362.3 158 360.3 159.8 358.8 158.2 369.8 148.2 371.3 149.8 364.2 156.3 371.2 156.5 372.9 158.4 367.3 158.2 365.5 165.5 363.8 163.6 365.2 158.1"/><path class="a" d="M383,173.7l-2-1a2.59,2.59,0,0,0-2.3-4,4.87,4.87,0,0,0-2.5,1.2,4.42,4.42,0,0,0-1.5,2.3,3,3,0,0,0,2.3,3.1,2.54,2.54,0,0,0,1.7-.4l.9,1.9a4.16,4.16,0,0,1-2.7.3,4.21,4.21,0,0,1-2.5-1.6,4.76,4.76,0,0,1-1.5-3.7,6.28,6.28,0,0,1,5.8-5.3,5,5,0,0,1,3.6,1.8,4.91,4.91,0,0,1,.7,5.4" transform="translate(0 -0.3)"/><path class="a" d="M386.5,177.1a5.12,5.12,0,0,0-3.9,3.6,2.91,2.91,0,0,0,2.7,3.1h.2a5.12,5.12,0,0,0,3.9-3.6,3.07,3.07,0,0,0-2.7-3.2.31.31,0,0,1-.2.1Zm4.9,3.5a6.37,6.37,0,0,1-5.8,5.3,5.79,5.79,0,0,1-5.1-5.5,6.37,6.37,0,0,1,5.8-5.3A5.7,5.7,0,0,1,391.4,180.6Z" transform="translate(0 -0.3)"/><path class="a" d="M400,189.4a3.32,3.32,0,0,1-1.4,2.7l-4.9,4.5-1.5-1.6,4.4-4c1.3-1.2,1.5-2.4.5-3.4a2.84,2.84,0,0,0-1.9-.9,3.26,3.26,0,0,0-2.3,1l-4,3.7-1.5-1.6,7.5-6.9,1.3,1.5-1.2,1.2a2.74,2.74,0,0,1,2,.1,4.34,4.34,0,0,1,1.7,1.2,2.76,2.76,0,0,1,1.3,2.5" transform="translate(0 -0.3)"/><path class="a" d="M400.9,203.3a5,5,0,0,1-1.3-.4,4,4,0,0,1-1.2-1,3.46,3.46,0,0,1-1-2.1,2.81,2.81,0,0,1,1-2.1l4.3-3.9-1.3-1.5,1.3-1.2,1.3,1.5,1.8-1.6,1.9,1.2-2.2,2,2.4,2.6-1.3,1.2-2.4-2.6-4,3.7a1.39,1.39,0,0,0-.5,1,1.61,1.61,0,0,0,.5,1.1,2.47,2.47,0,0,0,1.6.8Z" transform="translate(0 -0.3)"/><path class="a" d="M410.8,196.9a1.39,1.39,0,0,1,.5-1,1.28,1.28,0,0,1,1-.4,2.07,2.07,0,0,1,1,.6,1.91,1.91,0,0,1,.5,1,1.39,1.39,0,0,1-.5,1,1.28,1.28,0,0,1-1,.4,1.39,1.39,0,0,1-1-.5,1.61,1.61,0,0,1-.5-1.1Zm-7.6,10-1.5-1.6,7.5-6.9,1.5,1.6Z" transform="translate(0 -0.3)"/><path class="a" d="M417.9,208.9a3.32,3.32,0,0,1-1.4,2.7l-4.9,4.5-1.5-1.6,4.4-4c1.3-1.2,1.5-2.4.5-3.4a2.84,2.84,0,0,0-1.9-.9,3.26,3.26,0,0,0-2.3,1l-4,3.7-1.5-1.6,7.5-6.9,1.3,1.5-1.2,1.2a2.74,2.74,0,0,1,2,.1,4.34,4.34,0,0,1,1.7,1.2,2.76,2.76,0,0,1,1.3,2.5" transform="translate(0 -0.3)"/><path class="a" d="M427.6,218.3l-7.5,6.9-1.3-1.5,1.2-1.2a3.7,3.7,0,0,1-3.8-1.4,3.63,3.63,0,0,1-1.1-2.6,3.76,3.76,0,0,1,1.4-2.6l5-4.6,1.5,1.6-4.5,4.2a3.37,3.37,0,0,0-1.1,1.7,1.8,1.8,0,0,0,.7,1.5,3,3,0,0,0,2,1,3.26,3.26,0,0,0,2.3-1l4.1-3.7Z" transform="translate(0 -0.3)"/><path class="a" d="M429.6,224.1a5.12,5.12,0,0,0-3.9,3.6,2.91,2.91,0,0,0,2.7,3.1h.2a5.12,5.12,0,0,0,3.9-3.6,3.07,3.07,0,0,0-2.7-3.2c0,.1-.1.1-.2.1Zm4.9,3.5a6.37,6.37,0,0,1-5.8,5.3,5.79,5.79,0,0,1-5.1-5.5,6.37,6.37,0,0,1,5.8-5.3A5.62,5.62,0,0,1,434.5,227.6Z" transform="translate(0 -0.3)"/><path class="a" d="M612,291.9l2.6,6.5-1.5.6-.7-1.6a3.52,3.52,0,0,1-1,1.9,6,6,0,0,1-2.1,1.4,6.54,6.54,0,0,1-3.4.4,5.42,5.42,0,0,1-2.9-1.5,8.49,8.49,0,0,1-2.1-3.2,8,8,0,0,1-.6-3.7,6,6,0,0,1,1.2-3.1,6.29,6.29,0,0,1,2.8-2,6,6,0,0,1,3.5-.5,5.42,5.42,0,0,1,2.9,1.5l-1.5,1.6a3.41,3.41,0,0,0-1.8-1.1,4.45,4.45,0,0,0-2.3.3,3.67,3.67,0,0,0-2.3,2.4,5.8,5.8,0,0,0,.3,3.9,5.74,5.74,0,0,0,2.4,3.1,3.71,3.71,0,0,0,3.4.1,3.92,3.92,0,0,0,2.1-1.7,2.76,2.76,0,0,0,.1-2.5l-.1-.4-3.8,1.5-.7-1.7Z" transform="translate(0 -0.3)"/><path class="a" d="M617.2,288.1a4.12,4.12,0,0,0,.1,2.2l4.9-2.6a3.91,3.91,0,0,0-1.7-1.4,2.75,2.75,0,0,0-2,.2,2.93,2.93,0,0,0-1.3,1.6Zm7.6.2-6.6,3.5a3.56,3.56,0,0,0,1.8,1.4,2.58,2.58,0,0,0,2.1-.3,3.48,3.48,0,0,0,1.3-1.1,1.59,1.59,0,0,0,.3-1.3l2-.2c.1,1.8-.9,3.1-2.8,4.2a5.11,5.11,0,0,1-4,.5,5.48,5.48,0,0,1-3-2.8,5.85,5.85,0,0,1-.7-4.1,4.83,4.83,0,0,1,2.6-3,4.39,4.39,0,0,1,3.7-.4,4.8,4.8,0,0,1,2.8,2.6A9.29,9.29,0,0,1,624.8,288.3Z" transform="translate(0 -0.3)"/><path class="a" d="M630.8,289.2a4,4,0,0,1-2.4-.4l.5-1.9a2.54,2.54,0,0,0,1.7.4,4.38,4.38,0,0,0,1.9-.7,3.45,3.45,0,0,0,1.2-1.2,1.08,1.08,0,0,0,0-1.1,1,1,0,0,0-.9-.4,13.32,13.32,0,0,0-1.9.5,7.64,7.64,0,0,1-3.3.8,2.47,2.47,0,0,1-1.9-1.2,2.28,2.28,0,0,1-.4-1.6,3,3,0,0,1,.6-1.8,4.36,4.36,0,0,1,1.7-1.6,5.24,5.24,0,0,1,2.6-1,3.79,3.79,0,0,1,2.3.6l-.7,1.8a3,3,0,0,0-1.6-.5,2.27,2.27,0,0,0-1.6.6,3.18,3.18,0,0,0-1.1,1.2,1.08,1.08,0,0,0,0,1.1.87.87,0,0,0,.9.4,6.64,6.64,0,0,0,2-.6,7.11,7.11,0,0,1,3.2-.7,2.66,2.66,0,0,1,2.1,3.7,5.58,5.58,0,0,1-2.3,2.5,6.6,6.6,0,0,1-2.6,1.1" transform="translate(0 -0.3)"/><path class="a" d="M645,278.5a4.33,4.33,0,0,1-.5,1.2,3.84,3.84,0,0,1-1.1,1.1,3.49,3.49,0,0,1-2.2.8,2.65,2.65,0,0,1-2-1.2l-3.6-4.6-1.5,1.2-1.1-1.4,1.5-1.2-1.5-1.9,1.3-1.8,1.9,2.4,2.8-2.2,1.1,1.4-2.8,2.2,3.4,4.3a1.33,1.33,0,0,0,1,.6,1.5,1.5,0,0,0,1.1-.4,2.37,2.37,0,0,0,.9-1.5Z" transform="translate(0 -0.3)"/><path class="a" d="M649.1,275.8l-1.6,1.5-6.8-7.7,1.6-1.5Zm-9.8-7.8a1.39,1.39,0,0,1-1-.5,1.28,1.28,0,0,1-.4-1,2.07,2.07,0,0,1,.6-1,1.28,1.28,0,0,1,1-.4,1.05,1.05,0,0,1,.9.5,1.28,1.28,0,0,1,.4,1,2.07,2.07,0,0,1-.6,1A1.1,1.1,0,0,1,639.3,268Z" transform="translate(0 -0.3)"/><path class="a" d="M648.3,265.9a5.23,5.23,0,0,0,3.8,3.8,2.91,2.91,0,0,0,3-2.8v-.2a5,5,0,0,0-3.8-3.7,2.84,2.84,0,0,0-3,2.8v.1m3.3-5.1a6.37,6.37,0,0,1,5.6,5.5,5.7,5.7,0,0,1-5.3,5.3,6.37,6.37,0,0,1-5.6-5.5,5.7,5.7,0,0,1,5.3-5.3" transform="translate(0 -0.3)"/><path class="a" d="M659.4,250.9a3.89,3.89,0,0,1,2.9.9l5.2,4.2-1.4,1.7-4.6-3.7c-1.4-1.1-2.6-1.1-3.5,0a2.52,2.52,0,0,0-.6,2,3,3,0,0,0,1.4,2.2l4.2,3.4-1.4,1.7-8-6.4,1.2-1.5,1.4,1a2.75,2.75,0,0,1-.2-2,6.63,6.63,0,0,1,.9-1.9,3.8,3.8,0,0,1,2.5-1.6" transform="translate(0 -0.3)"/><path class="a" d="M671.1,247.1a1.8,1.8,0,0,0-.7-1.5l-1-.7-.8,2.1a4.71,4.71,0,0,0-.4,1.6,1.23,1.23,0,0,0,.5,1,.76.76,0,0,0,.9.1,1.76,1.76,0,0,0,.9-.8,3,3,0,0,0,.6-1.8m2.9-3.6,1.2.9a3.08,3.08,0,0,1-.5,1.2,2.17,2.17,0,0,1-1.1,1,1.74,1.74,0,0,1-1.4-.1,3.72,3.72,0,0,1,.2,1.8,4.06,4.06,0,0,1-.8,1.9,3.75,3.75,0,0,1-1.9,1.6,2.46,2.46,0,0,1-2.2-.3,2.65,2.65,0,0,1-1.2-2,5.47,5.47,0,0,1,.7-3.1l1-2.4-.5-.3a2,2,0,0,0-1.5-.4,2.12,2.12,0,0,0-1.3,1,2.56,2.56,0,0,0,.1,3.2l-1.7.9a3.78,3.78,0,0,1-.8-2.3,5.12,5.12,0,0,1,.9-2.7,4.7,4.7,0,0,1,2.5-2.1,3.31,3.31,0,0,1,2.9.5l3.9,2.5a1.42,1.42,0,0,0,.6.2,1,1,0,0,0,.5-.4.92.92,0,0,0,.4-.6" transform="translate(0 -0.3)"/><path class="a" d="M670.8,231.1l1.6,1.3a1.89,1.89,0,0,0-.8,1,2.77,2.77,0,0,0-.3,1.3,2.11,2.11,0,0,0,.5,1.3,2.76,2.76,0,0,0,1.3,1.1l4.8,2.6-1,1.9-9-4.9.9-1.6,1.7.7a3.32,3.32,0,0,1-.3-3.8,1.8,1.8,0,0,1,.6-.9" transform="translate(0 -0.3)"/><polygon class="a" points="615.1 63 613.1 62 619 49.9 621 50.9 615.1 63"/><path class="a" d="M634.9,63.2a3.74,3.74,0,0,1,.5,1.8,4.37,4.37,0,0,1-.7,2.1l-3.5,5.7-1.9-1.1,3.3-5.4a2.32,2.32,0,0,0,.4-1.8,1.89,1.89,0,0,0-1-1.3,2.41,2.41,0,0,0-2-.3,3,3,0,0,0-1.8,1.5l-2.9,4.7L623.4,68l3.3-5.4a2.32,2.32,0,0,0,.4-1.8,1.89,1.89,0,0,0-1-1.3,2.84,2.84,0,0,0-1.3-.4,2.3,2.3,0,0,0-1.4.4,4,4,0,0,0-1.3,1.3l-2.8,4.6-1.9-1.1,5.3-8.7,1.7,1-.8,1.5a4.49,4.49,0,0,1,1.9-.5,3.29,3.29,0,0,1,1.9.6,5.36,5.36,0,0,1,1.5,1.5,3.44,3.44,0,0,1,.4,2,2.88,2.88,0,0,1,2-.5,4.66,4.66,0,0,1,2,.6,3.64,3.64,0,0,1,1.6,1.4" transform="translate(0 -0.3)"/><path class="a" d="M640,76.5a4.88,4.88,0,0,0,3.2-4.1,2.46,2.46,0,0,0-1-2,2.63,2.63,0,0,0-2.1-.6,4.18,4.18,0,0,0-2.1,1.3l-.5.6a4,4,0,0,0-.8,2.3,2.89,2.89,0,0,0,3.1,2.5Zm5.4-4.1a5.37,5.37,0,0,1-1.5,3.8,5.4,5.4,0,0,1-3.4,2.3,4.47,4.47,0,0,1-3.5-.9,3.77,3.77,0,0,1-1.2-1.6,4.13,4.13,0,0,1-.2-1.9l-3.7,4.7-1.7-1.4,9-11.4,1.5,1.2-1.1,1.6a4.48,4.48,0,0,1,2-.4,4.74,4.74,0,0,1,3.8,4Z" transform="translate(0 -0.3)"/><path class="a" d="M645.8,80.9a1.19,1.19,0,0,0-.5.9,1.23,1.23,0,0,0,.4.8,2.4,2.4,0,0,0,1.2.7l-1.4,1.1a6,6,0,0,1-1.5-.9,2.42,2.42,0,0,1-1-1.9,3.46,3.46,0,0,1,1-2.1l8.2-9,1.6,1.5Z" transform="translate(0 -0.3)"/><path class="a" d="M654,81.9a3.77,3.77,0,0,0-2.1.7l3.8,4a3.18,3.18,0,0,0,.8-2,2.41,2.41,0,0,0-.7-1.8,2.14,2.14,0,0,0-1.8-.9Zm1.9,7.3-5.2-5.4a3.23,3.23,0,0,0-.8,2.1,2.46,2.46,0,0,0,.9,1.9,4.51,4.51,0,0,0,1.4,1,1.74,1.74,0,0,0,1.4-.1l.7,1.8a4.64,4.64,0,0,1-4.8-1.5,5.23,5.23,0,0,1-1.6-3.7,5.58,5.58,0,0,1,1.9-3.7,5.92,5.92,0,0,1,3.7-1.8,4.6,4.6,0,0,1,3.6,1.7,4.69,4.69,0,0,1,1.5,3.5,5,5,0,0,1-1.8,3.4A3.24,3.24,0,0,1,655.9,89.2Z" transform="translate(0 -0.3)"/><path class="a" d="M670.6,98.6a3.13,3.13,0,0,1-.2,1.9,3.91,3.91,0,0,1-1.4,1.7l-5.3,4-1.3-1.7,5-3.8a2.83,2.83,0,0,0,1.1-1.5,1.94,1.94,0,0,0-.5-1.6,2.23,2.23,0,0,0-1.8-1,3.31,3.31,0,0,0-2.3.7l-4.4,3.4L658.2,99l5-3.8a2.4,2.4,0,0,0,1.1-1.5,1.94,1.94,0,0,0-.5-1.6,2.54,2.54,0,0,0-1-.8,2.62,2.62,0,0,0-1.5-.2,3.81,3.81,0,0,0-1.7.8l-4.3,3.3L654,93.5l8.2-6.2,1.2,1.6L662.1,90a3.47,3.47,0,0,1,3.5,1.4,5,5,0,0,1,.8,2,2.82,2.82,0,0,1-.4,2,3.07,3.07,0,0,1,2.1.2,5.5,5.5,0,0,1,1.7,1.3,3.81,3.81,0,0,1,.8,1.7" transform="translate(0 -0.3)"/><path class="a" d="M672.9,106.2a3.36,3.36,0,0,0-2.2.2l2.8,4.8a3.38,3.38,0,0,0,1.3-1.8,2.09,2.09,0,0,0-.3-1.9,2.56,2.56,0,0,0-1.6-1.3Zm.1,7.5-3.8-6.5a3.28,3.28,0,0,0-1.3,1.9,3.08,3.08,0,0,0,.4,2.1,4.89,4.89,0,0,0,1.2,1.3,1.74,1.74,0,0,0,1.4.3l.3,2a4.43,4.43,0,0,1-4.3-2.6,4.75,4.75,0,0,1-.7-4,5.34,5.34,0,0,1,2.7-3.2,5.69,5.69,0,0,1,4-.9,4.57,4.57,0,0,1,3.1,2.5,4.86,4.86,0,0,1,.6,3.7,4.8,4.8,0,0,1-2.5,2.9A5.36,5.36,0,0,1,673,113.7Z" transform="translate(0 -0.3)"/><path class="a" d="M682.3,121a3.52,3.52,0,0,1-2.1,2.2l-6,2.8-.9-2,5.4-2.5c1.6-.8,2.1-1.8,1.5-3.1a2.94,2.94,0,0,0-1.6-1.5,2.73,2.73,0,0,0-2.5.3l-4.9,2.3-.9-2,9.3-4.4.8,1.8-1.5.8a3.16,3.16,0,0,1,1.9.7,3.71,3.71,0,0,1,1.3,1.7,4.13,4.13,0,0,1,.2,2.9" transform="translate(0 -0.3)"/><path class="a" d="M678,134.2a2.84,2.84,0,0,1-1-.9,4.15,4.15,0,0,1-.7-1.3,3.3,3.3,0,0,1-.1-2.4,2.68,2.68,0,0,1,1.7-1.6l5.4-2.1-.7-1.8,1.6-.6.7,1.8,2.2-.8,1.4,1.8-2.8,1.1,1.3,3.4-1.6.6-1.3-3.4-5.1,2a1.6,1.6,0,0,0-.9.7,1.38,1.38,0,0,0,.1,1.1,2.19,2.19,0,0,0,1.2,1.3Z" transform="translate(0 -0.3)"/><path class="a" d="M681.2,140.2a1.56,1.56,0,0,0,1.6.4l1.2-.3-1.1-2a4.51,4.51,0,0,0-1-1.4,1.09,1.09,0,0,0-1.1-.2,1.06,1.06,0,0,0-.7.6,2.44,2.44,0,0,0,0,1.2,4.52,4.52,0,0,0,1.1,1.7m.8,4.5-1.5.3a2.38,2.38,0,0,1-.6-1.1,2.57,2.57,0,0,1-.1-1.5,2.19,2.19,0,0,1,.9-1,3.07,3.07,0,0,1-1.5-1,6.92,6.92,0,0,1-1-1.9,3.58,3.58,0,0,1,0-2.5,2.63,2.63,0,0,1,1.6-1.5,2.44,2.44,0,0,1,2.2.4,6.93,6.93,0,0,1,2,2.5l1.2,2.4.5-.2a2.07,2.07,0,0,0,1.3-.9,2.22,2.22,0,0,0,.1-1.6,2.48,2.48,0,0,0-2.5-2l.4-1.9a3.34,3.34,0,0,1,2.3.9,5.79,5.79,0,0,1,1.5,2.5,4.69,4.69,0,0,1,0,3.3,3.16,3.16,0,0,1-2.3,1.9l-4.4,1.3a.85.85,0,0,0-.5.3.64.64,0,0,0,0,.6,2.51,2.51,0,0,1,.4.7" transform="translate(0 -0.3)"/><path class="a" d="M692.1,150.6l-2,.1a2.85,2.85,0,0,0,0-1.3,2.38,2.38,0,0,0-.6-1.1,2.13,2.13,0,0,0-1.2-.7,4.84,4.84,0,0,0-1.7,0l-5.3,1.1-.5-2.1,10-2.1.4,1.8-1.8.6a3.18,3.18,0,0,1,2.7,2.7,1.67,1.67,0,0,1,0,1" transform="translate(0 -0.3)"/><path class="a" d="M437.6,108.5l-.8,2.1a2.46,2.46,0,0,0-3.1.5,2.58,2.58,0,0,0-.7,2.2,4.12,4.12,0,0,0,1.5,2.4,3.7,3.7,0,0,0,2.4,1.2,2.92,2.92,0,0,0,2.9-2.5,2.77,2.77,0,0,0-.5-1.6l1.9-1a4.31,4.31,0,0,1,.6,2.7,5,5,0,0,1-1.4,2.7,4.7,4.7,0,0,1-3.6,1.8,6.37,6.37,0,0,1-5.8-5.3,4.76,4.76,0,0,1,1.5-3.7c1.5-1.9,3.2-2.3,5.1-1.5" transform="translate(0 -0.3)"/><path class="a" d="M440.8,104.7a5.27,5.27,0,0,0,3.9,3.6,2.9,2.9,0,0,0,2.9-2.9v-.3a5.12,5.12,0,0,0-3.9-3.6,2.9,2.9,0,0,0-2.9,2.9v.3Zm3-5.2a6.37,6.37,0,0,1,5.8,5.3,5.62,5.62,0,0,1-5.1,5.5,6.37,6.37,0,0,1-5.8-5.3A5.79,5.79,0,0,1,443.8,99.5Z" transform="translate(0 -0.3)"/><path class="a" d="M451.8,90.2a3.93,3.93,0,0,1,2.8,1.1l4.9,4.5L458,97.4l-4.4-4c-1.3-1.2-2.5-1.3-3.5-.2a2.49,2.49,0,0,0-.7,2,3,3,0,0,0,1.2,2.2l4,3.7-1.5,1.6-7.5-6.9,1.3-1.5,1.3,1.1a3.38,3.38,0,0,1-.1-2,4,4,0,0,1,1-1.8,4.45,4.45,0,0,1,2.7-1.4" transform="translate(0 -0.3)"/><path class="a" d="M465.6,88.2a2.77,2.77,0,0,1-.3,1.3,3.81,3.81,0,0,1-.9,1.3,3.22,3.22,0,0,1-2,1.2,3,3,0,0,1-2.2-.8l-4.3-3.9-1.3,1.5-1.3-1.2,1.3-1.5-1.8-1.6,1-2,2.2,2,2.4-2.6,1.3,1.2-2.4,2.6,4,3.7a1.19,1.19,0,0,0,1.1.4,1.7,1.7,0,0,0,1-.6,2.72,2.72,0,0,0,.6-1.7Z" transform="translate(0 -0.3)"/><path class="a" d="M469,85.5l-1.5,1.6L460,80.2l1.5-1.6Zm-10.6-6.7a1.28,1.28,0,0,1-1-.4,1.25,1.25,0,0,1,0-2,1.7,1.7,0,0,1,1-.6,1.28,1.28,0,0,1,1,.4,1.25,1.25,0,0,1,0,2A1.1,1.1,0,0,1,458.4,78.8Z" transform="translate(0 -0.3)"/><path class="a" d="M470.5,71.1a3.62,3.62,0,0,1,2.7,1.4l4.5,4.9-1.6,1.5-4-4.4c-1.2-1.3-2.4-1.5-3.4-.5a2.46,2.46,0,0,0-.9,1.9,3.26,3.26,0,0,0,1,2.3l3.7,4-1.6,1.5L464,76.1l1.5-1.3,1.2,1.2a3.38,3.38,0,0,1,.1-2,4.34,4.34,0,0,1,1.2-1.7,3.52,3.52,0,0,1,2.5-1.2" transform="translate(0 -0.3)"/><path class="a" d="M480.9,62.1l6.1,8.2-1.6,1.2-1.1-1.3a3.87,3.87,0,0,1-1.8,3.7,4.39,4.39,0,0,1-2.7.9,4.21,4.21,0,0,1-2.5-1.6l-4-5.4,1.8-1.3,3.7,4.9a2.76,2.76,0,0,0,1.6,1.2,1.84,1.84,0,0,0,1.6-.5,2.76,2.76,0,0,0,1.2-1.9,3,3,0,0,0-.7-2.3l-3.3-4.4Z" transform="translate(0 -0.3)"/><path class="a" d="M492.5,64.5a1.53,1.53,0,0,0,0-1.6l-.6-1-1.7,1.6a4.12,4.12,0,0,0-1,1.3,1.07,1.07,0,0,0,.1,1.1,1,1,0,0,0,.8.5,2,2,0,0,0,1.1-.3,10.1,10.1,0,0,0,1.3-1.6Zm4.1-2,.7,1.3a2.84,2.84,0,0,1-1,.9,2.3,2.3,0,0,1-1.4.4,1.74,1.74,0,0,1-1.2-.6,2.72,2.72,0,0,1-.6,1.7,3.64,3.64,0,0,1-1.6,1.4,4.2,4.2,0,0,1-2.4.7,2.15,2.15,0,0,1-1.8-1.2,2.65,2.65,0,0,1-.2-2.3,7,7,0,0,1,1.9-2.6l2-1.7-.3-.5a2,2,0,0,0-2.9-.7,2.5,2.5,0,0,0-1.3,2.9l-1.9.1a3.32,3.32,0,0,1,.3-2.4,5.78,5.78,0,0,1,2-2.1,5.71,5.71,0,0,1,3.2-.9,3.24,3.24,0,0,1,2.4,1.7l2.4,3.9c.1.2.3.3.4.4a1.27,1.27,0,0,0,.6-.1A.91.91,0,0,0,496.6,62.5Z" transform="translate(0 -0.3)"/><path class="b" d="M189.9,176.7a4.69,4.69,0,0,0,1.8-1.9,5.46,5.46,0,0,0,.6-2.8,5.55,5.55,0,0,0-.7-2.8,4.36,4.36,0,0,0-1.9-1.9,5,5,0,0,0-2.7-.7h-3.4v10.8h3.6a5,5,0,0,0,2.7-.7m2.1-12.3a7.38,7.38,0,0,1,3.2,3.1,9,9,0,0,1,0,9,8.22,8.22,0,0,1-3.3,3.1,10.23,10.23,0,0,1-4.8,1.1h-7.2V163.3h7.4a9.84,9.84,0,0,1,4.7,1.1" transform="translate(0 -0.3)"/><polygon class="b" points="198.9 163 212.2 163 212.2 166.2 202.9 166.2 202.9 170 211.3 170 211.3 173.3 202.9 173.3 202.9 177.1 212.5 177.1 212.5 180.4 198.9 180.4 198.9 163"/><polygon class="b" points="213.7 163 217.9 163 222.6 176.2 227.4 163 231.5 163 224.6 180.4 220.5 180.4 213.7 163"/><path class="b" d="M540.2,167.2a6.36,6.36,0,0,0-2,2,5.67,5.67,0,0,0,2,7.6,5,5,0,0,0,2.7.7,5,5,0,0,0,4.6-2.7,5.95,5.95,0,0,0,0-5.6,6.06,6.06,0,0,0-1.9-2,5,5,0,0,0-2.7-.7A4.23,4.23,0,0,0,540.2,167.2Zm7.4-3a8.9,8.9,0,0,1,3.5,12.1,8.44,8.44,0,0,1-3.5,3.5,10,10,0,0,1-9.5,0,8.91,8.91,0,0,1,0-15.6,10,10,0,0,1,9.5,0Z" transform="translate(0 -0.3)"/><path class="b" d="M564.5,171.7a3.1,3.1,0,0,0,.9-2.2,2.74,2.74,0,0,0-.9-2.2,3.79,3.79,0,0,0-2.6-.7h-3.3v5.9h3.3a4.46,4.46,0,0,0,2.6-.8Zm2.8-6.8a5.74,5.74,0,0,1,1.8,4.5,6.18,6.18,0,0,1-1.8,4.7,7.34,7.34,0,0,1-5.1,1.7h-3.5v5h-3.9V163.4h7.3A6.91,6.91,0,0,1,567.3,164.9Z" transform="translate(0 -0.3)"/><path class="b" d="M580.3,166.8a7.51,7.51,0,0,0-2.6-.5,2.93,2.93,0,0,0-1.6.4,1.15,1.15,0,0,0-.6,1.1,1.51,1.51,0,0,0,.9,1.4,11.66,11.66,0,0,0,2.6,1,24.69,24.69,0,0,1,2.9,1,5.26,5.26,0,0,1,2,1.6,4,4,0,0,1,.8,2.8,5.21,5.21,0,0,1-.9,2.9,5.28,5.28,0,0,1-2.4,1.8,10.3,10.3,0,0,1-3.5.6,12.34,12.34,0,0,1-4.2-.7,13.3,13.3,0,0,1-3.5-2l1.6-3.2a9.53,9.53,0,0,0,3,1.9,8.7,8.7,0,0,0,3.1.7,4.06,4.06,0,0,0,1.9-.4,1.6,1.6,0,0,0,.4-2.2c-.1-.1-.1-.2-.2-.2a2.4,2.4,0,0,0-1.2-.7,12.43,12.43,0,0,0-2-.6,24.69,24.69,0,0,1-2.9-1,5.85,5.85,0,0,1-2-1.5,3.77,3.77,0,0,1-.8-2.7,5.66,5.66,0,0,1,.8-2.8,5.46,5.46,0,0,1,2.4-1.8,8.34,8.34,0,0,1,3.5-.6,13.45,13.45,0,0,1,3.5.5,12.32,12.32,0,0,1,3.1,1.4l-1.5,3.3a8.41,8.41,0,0,0-2.6-1.5" transform="translate(0 -0.3)"/><path class="b" d="M559.2,266a90.62,90.62,0,0,1-63.8-26.1l-.1-.1-58.4-63.7a1.84,1.84,0,1,1,2.7-2.5L498,237.2a87.37,87.37,0,1,0-.1-124.8l-44.3,48.3a1.84,1.84,0,1,1-2.7-2.5l44.3-48.3.1-.1c35.8-35.2,93.6-34.6,128.8,1.2a91,91,0,0,1-1.2,128.7A89.56,89.56,0,0,1,559.2,266m-354.7,0a91.09,91.09,0,1,1,64.4-155.5h0l.1.1.1.1,57.8,62.9a1.84,1.84,0,0,1-2.7,2.5l-57.8-62.9-.1-.1h0a87.4,87.4,0,1,0,0,123.6l.1-.1L310,189.1a1.84,1.84,0,0,1,2.7,2.5L269,239.2l-.1.1-.1.1A90.47,90.47,0,0,1,204.5,266m354.7,83h0a172.92,172.92,0,0,1-123.1-51l-1.3-1.3-54.3-59.1a1.84,1.84,0,1,1,2.7-2.5l54.3,59.1,1.2,1.2a170.34,170.34,0,1,0,241-240.8,170.44,170.44,0,0,0-241,0l-1.2,1.2L397.3,99.5a1.84,1.84,0,1,1-2.7-2.5l40.2-43.7a8,8,0,0,1,1.3-1.3A172.92,172.92,0,0,1,559.2,1h0A173.95,173.95,0,0,1,682.3,298a172.92,172.92,0,0,1-123.1,51m-354.7,0h-1.1A175.34,175.34,0,0,1,29.7,175.3,174,174,0,0,1,202.7.3,172.7,172.7,0,0,1,326,50.4a39.67,39.67,0,0,1,2.9,2.9l54.3,59.1a1.84,1.84,0,0,1-2.7,2.5L326.2,55.8c-.9-.9-1.8-1.8-2.7-2.6l-.1-.1A168.55,168.55,0,0,0,203.8,3.9h-1.1A170.35,170.35,0,0,0,84,295.5a169.48,169.48,0,0,0,119.5,49.9h1.1a169.8,169.8,0,0,0,119-48.4l.1-.1a34.37,34.37,0,0,0,2.7-2.7l40.2-43.7a1.84,1.84,0,0,1,2.7,2.5l-40.2,43.7a39.67,39.67,0,0,1-2.9,2.9A173.74,173.74,0,0,1,204.5,349" transform="translate(0 -0.3)"/><path class="b" d="M204.5,266a91,91,0,1,1,64.4-155.4h0l.1.1.1.1,57.8,62.9a1.84,1.84,0,0,1-2.7,2.5l-57.8-62.9-.1-.1h0a87.4,87.4,0,1,0,0,123.6l.1-.1L310,189.2a1.84,1.84,0,0,1,2.7,2.5L269,239.3l-.1.1-.1.1A90.85,90.85,0,0,1,204.5,266" transform="translate(0 -0.3)"/><path class="b" d="M381.9,238.1a1.61,1.61,0,0,1-1.3-.6l-56.3-61.3a1.84,1.84,0,1,1,2.7-2.5L383.3,235a1.88,1.88,0,0,1-.1,2.6,1.79,1.79,0,0,1-1.3.5" transform="translate(0 -0.3)"/><path class="b" d="M438.2,176.8a1.61,1.61,0,0,1-1.3-.6l-56.3-61.3a1.84,1.84,0,1,1,2.7-2.5l56.3,61.3a1.88,1.88,0,0,1-.1,2.6,2.35,2.35,0,0,1-1.3.5" transform="translate(0 -0.3)"/><path class="c" d="M201.6,60.2a1.61,1.61,0,0,1-1.3-.6L188.7,47.1c-1.8-1.8-1.8-3.3,0-5.1l11.6-12.5A1.84,1.84,0,0,1,203,32L191.4,44.5l-.1.1h0L203,57.2a1.88,1.88,0,0,1-.1,2.6,3.26,3.26,0,0,1-1.3.4" transform="translate(0 -0.3)"/><path class="c" d="M73.8,193.6a4,4,0,0,1-2.6-1.4L58.7,180.6a1.84,1.84,0,1,1,2.5-2.7l12.5,11.6.1.1h0L86.4,178a1.84,1.84,0,0,1,2.5,2.7L76.4,192.3a4,4,0,0,1-2.6,1.3" transform="translate(0 -0.3)"/><path class="c" d="M204.7,322.9a1.85,1.85,0,0,1-1.2-.5,1.87,1.87,0,0,1-.1-2.6L215,307.3l.1-.1h0l-11.7-12.6a1.84,1.84,0,0,1,2.7-2.5l11.6,12.5c1.8,1.8,1.8,3.3,0,5.1L206,322.3a1.61,1.61,0,0,1-1.3.6" transform="translate(0 -0.3)"/><path class="c" d="M558.3,61.3a2.28,2.28,0,0,1-1.1-.3,1.88,1.88,0,0,1-.4-2.6l9.9-13.9v-.1h0l-13.2-11a1.84,1.84,0,0,1,2.4-2.8l13.2,10.9c2,1.5,2.2,3.1.6,5.1l-9.9,13.8a1.65,1.65,0,0,1-1.5.9" transform="translate(0 -0.3)"/><path class="c" d="M556.6,321.7a1.61,1.61,0,0,1-1.3-.6l-11.6-12.5c-1.8-1.8-1.8-3.3,0-5.1L555.3,291a1.84,1.84,0,0,1,2.7,2.5L546.4,306l-.1.1h0L558,318.7a1.88,1.88,0,0,1-.1,2.6,2.84,2.84,0,0,1-1.3.4" transform="translate(0 -0.3)"/><path class="c" d="M689,202.3a3.76,3.76,0,0,1-2.7-1.7l-11-13a1.84,1.84,0,0,1,2.8-2.4l11,13v.1h0l13.9-10a1.86,1.86,0,1,1,2.2,3l-13.8,10a4.75,4.75,0,0,1-2.4,1" transform="translate(0 -0.3)"/><path class="a" d="M58,297.3a5.69,5.69,0,0,1,2.9,1.9,7.3,7.3,0,0,1,1.6,3,5,5,0,0,1-.4,3.2,9.48,9.48,0,0,1-5.5,4.9,6.16,6.16,0,0,1-3.3,0,7,7,0,0,1-4.4-4.9,5.14,5.14,0,0,1,.4-3l1.6.7a4.19,4.19,0,0,0-.5,2.2,3.48,3.48,0,0,0,1,2,4.87,4.87,0,0,0,2.1,1.4,5.28,5.28,0,0,0,2.5,0,6.81,6.81,0,0,0,2.6-1.5,6.15,6.15,0,0,0,2.2-3.6,3.86,3.86,0,0,0-1.1-3.4,4.18,4.18,0,0,0-2.1-1.3,3.66,3.66,0,0,0-2.5.3l-.6-1.7a5.31,5.31,0,0,1,3.5-.2" transform="translate(0 -0.3)"/><path class="a" d="M48.2,296.7a4.93,4.93,0,0,0,4.5-3.5,3.31,3.31,0,0,0-2.8-3.8h-.2a4.93,4.93,0,0,0-4.5,3.5,3.31,3.31,0,0,0,2.8,3.8C48.1,296.6,48.1,296.7,48.2,296.7Zm-4.6-4.2a5.4,5.4,0,0,1,2.3-3.4,6.21,6.21,0,0,1,3.9-1.4,5.46,5.46,0,0,1,4.5,5.8,5.4,5.4,0,0,1-2.3,3.4,5.59,5.59,0,0,1-3.9,1.3,5.42,5.42,0,0,1-4.5-5.7Z" transform="translate(0 -0.3)"/><path class="a" d="M32.5,277.9a3.08,3.08,0,0,1,.3-1.9,4.13,4.13,0,0,1,1.5-1.7l5.5-3.6.9,1.4-5.4,3.5a2.62,2.62,0,0,0-1.3,1.6,2.32,2.32,0,0,0,.4,1.8,3,3,0,0,0,2.7,1.3,4.49,4.49,0,0,0,1.8-.7l4.7-3.1.9,1.4-5.4,3.5a2.62,2.62,0,0,0-1.3,1.6,2.32,2.32,0,0,0,.4,1.8,3.46,3.46,0,0,0,1.1,1,2.32,2.32,0,0,0,1.6.3,4.38,4.38,0,0,0,1.9-.7l4.6-3,.9,1.4-8.6,5.6-.8-1.2,1.3-1a4.06,4.06,0,0,1-1.9-.4,3.53,3.53,0,0,1-1.4-1.3,3.72,3.72,0,0,1-.7-2,2.88,2.88,0,0,1,.5-2,3.19,3.19,0,0,1-2.1-.4,5.72,5.72,0,0,1-1.6-1.5,5.76,5.76,0,0,1-.5-1.7" transform="translate(0 -0.3)"/><path class="a" d="M25.3,265.3l9-4.9.7,1.3-1.3.8a3.66,3.66,0,0,1,3.3,2.4,4,4,0,0,1,.5,2.8,3.78,3.78,0,0,1-2,2.3l-5.9,3.2-.8-1.5,5.5-3a2.94,2.94,0,0,0,1.6-1.5,2.59,2.59,0,0,0-.3-1.9,3.07,3.07,0,0,0-4.1-1.5c-.2.1-.3.2-.5.3l-4.9,2.6Z" transform="translate(0 -0.3)"/><path class="a" d="M21,254.5a3.68,3.68,0,0,1,2.2-2.2l6-2.8.7,1.5-5.4,2.5a3.53,3.53,0,0,0-1.8,1.6,2.77,2.77,0,0,0,.1,2,2.94,2.94,0,0,0,1,1.2,3.82,3.82,0,0,0,1.6.6,4.48,4.48,0,0,0,2-.4l5-2.3.7,1.5L23.8,262l-.6-1.3,1.4-.7a2.87,2.87,0,0,1-1.8-.7,4.53,4.53,0,0,1-1.3-1.7,3.51,3.51,0,0,1-.5-3.1" transform="translate(0 -0.3)"/><path class="a" d="M27.3,245.1l.6,1.5-9.5,3.9-.6-1.5Zm-11,6.3a1.33,1.33,0,1,1-.8-1.7c.4.1.6.4.8.8A.75.75,0,0,1,16.3,251.4Z" transform="translate(0 -0.3)"/><path class="a" d="M14.6,238.8a4.47,4.47,0,0,1,1.3-2.2l1.2,1.2a2.58,2.58,0,0,0-1,3.2,2.85,2.85,0,0,0,1.8,1.9,4.42,4.42,0,0,0,3-.1,4.3,4.3,0,0,0,2.4-1.8,3,3,0,0,0,.2-2.6,2.76,2.76,0,0,0-1.2-1.6,2.83,2.83,0,0,0-1.8-.4v-1.6a4.7,4.7,0,0,1,2.6.8,5.21,5.21,0,0,1,1.6,6.2,5.86,5.86,0,0,1-3.2,2.6,5.3,5.3,0,0,1-4.1.1,5,5,0,0,1-2.6-2.9,3.89,3.89,0,0,1-.2-2.8" transform="translate(0 -0.3)"/><path class="a" d="M19.2,227.1a1.74,1.74,0,0,0-1.8-.4L16,227l1.1,2.1a5.67,5.67,0,0,0,1.2,1.8,1.31,1.31,0,0,0,1.3.3,1.14,1.14,0,0,0,.8-.7,2.2,2.2,0,0,0-.1-1.4,3.09,3.09,0,0,0-1.1-2Zm-.7-4.2,1.3-.3a3.7,3.7,0,0,1,.5,1.1,2.85,2.85,0,0,1,0,1.3,1.79,1.79,0,0,1-1,.9,3.07,3.07,0,0,1,1.5,1,5.56,5.56,0,0,1,.9,1.7,3.87,3.87,0,0,1,0,2.6,2.34,2.34,0,0,1-1.7,1.5,2.44,2.44,0,0,1-2.2-.4,6.93,6.93,0,0,1-2-2.5l-1.2-2.5-.5.2a1.93,1.93,0,0,0-1.4,1.1,2.51,2.51,0,0,0-.1,1.9,3,3,0,0,0,2.7,2.3l-.5,1.4a3.21,3.21,0,0,1-2.2-1,5,5,0,0,1-1.4-2.3,4.15,4.15,0,0,1,0-3.1,3.09,3.09,0,0,1,2.2-1.8l4.8-1.4a.85.85,0,0,0,.5-.3.64.64,0,0,0,0-.6A.83.83,0,0,0,18.5,222.9Z" transform="translate(0 -0.3)"/><path class="a" d="M8.3,216.3a5.37,5.37,0,0,1,1.6-2.1l1.1,1.3a2.69,2.69,0,0,0-1.4,3.1,3,3,0,0,0,1.5,2.1,4.41,4.41,0,0,0,3,.2,4.61,4.61,0,0,0,2.6-1.5,3.36,3.36,0,0,0,.5-2.6,2.75,2.75,0,0,0-2.7-2.3l.2-1.6a5.41,5.41,0,0,1,2.6,1.1,4.8,4.8,0,0,1,1.4,2.5,4.54,4.54,0,0,1-.6,3.9,5.47,5.47,0,0,1-3.5,2.2,5.33,5.33,0,0,1-4.1-.4A4.54,4.54,0,0,1,8.3,219a4.16,4.16,0,0,1,0-2.7" transform="translate(0 -0.3)"/><path class="a" d="M16.7,208.4,17,210,7,211.9l-.3-1.6Zm-12,4a1.37,1.37,0,0,1-.8.5,1.24,1.24,0,0,1-.6-2.4h.1a1.25,1.25,0,0,1,1.4,1,1,1,0,0,1-.1.9Z" transform="translate(0 -0.3)"/><path class="a" d="M8,204.38a4.22,4.22,0,0,0,2.9.5,4.08,4.08,0,0,0,2.7-1.3,3.33,3.33,0,0,0-.5-4.7l-.1-.1a4.49,4.49,0,0,0-3-.5,4.08,4.08,0,0,0-2.7,1.3,3.36,3.36,0,0,0,.6,4.7.1.1,0,0,0,.1.1Zm-1.9-5.9a5.68,5.68,0,0,1,3.7-1.8,5.41,5.41,0,0,1,4.1.8,5.31,5.31,0,0,1,1,7.2,5.26,5.26,0,0,1-3.7,1.8,5.41,5.41,0,0,1-4.1-.8A5.3,5.3,0,0,1,6.1,198.48ZM0,200.68l3.7,1.5.2,1.3-3.7-1.1Z" transform="translate(0 -0.3)"/><path class="a" d="M4.6,186.3A3.72,3.72,0,0,1,7.4,185l6.5-.5.1,1.6-6,.4a3.52,3.52,0,0,0-2.3.9,2.21,2.21,0,0,0-.6,1.9,3,3,0,0,0,.5,1.5,2.37,2.37,0,0,0,1.3,1.1,3.73,3.73,0,0,0,2.1.3l5.4-.4.1,1.6-10.2.7-.1-1.5,1.6-.2a3.74,3.74,0,0,1-1.5-1.3,6.64,6.64,0,0,1-.6-2,4.9,4.9,0,0,1,.9-2.8" transform="translate(0 -0.3)"/><path class="a" d="M5.6,172.2a3.86,3.86,0,0,0,2.2,1.1l.2-6.2a3.52,3.52,0,0,0-2.3.9,3,3,0,0,0-.1,4.2Zm3.8-6.6-.2,7.7a4,4,0,0,0,2.5-1,3.17,3.17,0,0,0,.9-2.3,6.28,6.28,0,0,0-.3-1.9,1.82,1.82,0,0,0-1.1-1l.7-1.4a4.36,4.36,0,0,1,1.6,1.7A4.68,4.68,0,0,1,14,170a4.75,4.75,0,0,1-1.5,3.6,5.51,5.51,0,0,1-3.9,1.2,5.68,5.68,0,0,1-3.9-1.4,4.39,4.39,0,0,1-1.3-3.6,4.51,4.51,0,0,1,.7-2.5,3.35,3.35,0,0,1,1.8-1.5,7,7,0,0,1,2.5-.5A3.81,3.81,0,0,0,9.4,165.6Z" transform="translate(0 -0.3)"/><path class="a" d="M5.4,154.5a4,4,0,0,1,3-.9l6.5.6-.1,1.6-6-.5a3.41,3.41,0,0,0-2.4.5,2.83,2.83,0,0,0-.9,1.8,4.4,4.4,0,0,0,.2,1.6,2.76,2.76,0,0,0,1.1,1.3,3.61,3.61,0,0,0,2,.6l5.4.5-.1,1.6-10.2-.9.1-1.5H5.6a3.49,3.49,0,0,1-1.2-1.5,7.61,7.61,0,0,1-.3-2.1,4.08,4.08,0,0,1,1.3-2.7" transform="translate(0 -0.3)"/><path class="a" d="M16.7,137.8a3.4,3.4,0,0,1,.4,2.8,3.52,3.52,0,0,1-1,1.9,2.44,2.44,0,0,1-2.2.4l-6.2-1.1-.4,2L6,143.5l.4-2L4,141.1l-.2-1.7,2.9.5.7-3.7,1.4.2-.6,3.8,5.9,1a1.72,1.72,0,0,0,1.2-.2,2.07,2.07,0,0,0,.6-1,2.56,2.56,0,0,0-.4-1.9Z" transform="translate(0 -0.3)"/><path class="a" d="M18.2,134.3l-.3,1.6-10-2.2.3-1.6Zm-12.6-1a1,1,0,0,1-.9.1,1.26,1.26,0,0,1,.3-2.5h.2a1.18,1.18,0,0,1,.9,1.5,1.93,1.93,0,0,1-.5.9Z" transform="translate(0 -0.3)"/><path class="a" d="M11.5,127a3.75,3.75,0,0,0,1.9,1.6l1.6-6a3.93,3.93,0,0,0-2.4.3,2.69,2.69,0,0,0-1.3,1.8,2.65,2.65,0,0,0,.2,2.3m5.3-5.6-2,7.5a3.39,3.39,0,0,0,2.6-.4,3.52,3.52,0,0,0,1.4-2,4.08,4.08,0,0,0,.1-1.9,2.22,2.22,0,0,0-.8-1.3l1-1.1a3.74,3.74,0,0,1,1.2,2,5.76,5.76,0,0,1-2.4,5.9,5.83,5.83,0,0,1-4.1.3,6.22,6.22,0,0,1-3.5-2.2,4.59,4.59,0,0,1-.5-3.8,4.77,4.77,0,0,1,1.2-2.2,3.6,3.6,0,0,1,2.1-1.1,5.3,5.3,0,0,1,2.5.1,5,5,0,0,1,1.2.2" transform="translate(0 -0.3)"/><path class="a" d="M16.8,103.8a3.15,3.15,0,0,1,1.7-.9,4.16,4.16,0,0,1,2.2.2l6.2,2.2-.5,1.5-6-2.1a2.56,2.56,0,0,0-2.1,0,2.29,2.29,0,0,0-1.2,1.5,3,3,0,0,0,.6,3,3.36,3.36,0,0,0,1.6,1l5.3,1.9-.5,1.5-6-2.1a2.56,2.56,0,0,0-2.1,0,2.29,2.29,0,0,0-1.2,1.5,3.06,3.06,0,0,0,.6,2.9,4.52,4.52,0,0,0,1.7,1.1l5.2,1.8-.5,1.5-9.7-3.4.5-1.4,1.5.4a3.7,3.7,0,0,1-.8-1.8,4.13,4.13,0,0,1,.2-1.9,3.87,3.87,0,0,1,1.2-1.9,3.38,3.38,0,0,1,1.9-.9,3.38,3.38,0,0,1-.9-1.9,4.87,4.87,0,0,1,.2-2.1,4.33,4.33,0,0,1,.9-1.6" transform="translate(0 -0.3)"/><path class="a" d="M29,95.1a4.07,4.07,0,0,0-2.2-1.9,4.17,4.17,0,0,0-2.9-.4A2.72,2.72,0,0,0,22,94.5a3,3,0,0,0,0,2.6A3.75,3.75,0,0,0,24.2,99l.2.1a4.14,4.14,0,0,0,2.9.3,3.51,3.51,0,0,0,1.9-1.7,3.9,3.9,0,0,0-.2-2.6m-5.6-3.9a5.82,5.82,0,0,1,4.1.4,6.28,6.28,0,0,1,3.1,2.7,4.36,4.36,0,0,1-.1,3.7,4,4,0,0,1-1.3,1.6,2.87,2.87,0,0,1-1.8.7l5.4,2.4-.7,1.5L18.8,98.3l.6-1.3,1.7.6a3.16,3.16,0,0,1-.7-1.9,4.31,4.31,0,0,1,.4-2.2,4.62,4.62,0,0,1,2.6-2.3" transform="translate(0 -0.3)"/><path class="a" d="M27.1,86a4.29,4.29,0,0,0,2.1,2.1,4.92,4.92,0,0,0,2.9.6,3.39,3.39,0,0,0,2.3-4.2c0-.1,0-.1-.1-.2a4.29,4.29,0,0,0-2.1-2.1,4.92,4.92,0,0,0-2.9-.6A3.39,3.39,0,0,0,27,85.8a.35.35,0,0,0,.1.2M29,80.2a5.37,5.37,0,0,1,4.1.7,5.48,5.48,0,0,1,2.8,3,5.36,5.36,0,0,1-3.4,6.4,5.37,5.37,0,0,1-4.1-.7,6,6,0,0,1-2.9-3A5.52,5.52,0,0,1,29,80.2" transform="translate(0 -0.3)"/><path class="a" d="M37.2,64.4l1.2,1.2a2.58,2.58,0,0,0-.9.9,2.64,2.64,0,0,0,0,2.8,3.25,3.25,0,0,0,1.3,1.3l4.6,3L42.6,75,34,69.4l.7-1.1,1.5.7a3.31,3.31,0,0,1,.2-3.8,6,6,0,0,1,.8-.8" transform="translate(0 -0.3)"/><path class="a" d="M41.4,62a4,4,0,0,0,1.2,2.1l3.7-5a3.87,3.87,0,0,0-2.4-.5A3,3,0,0,0,42,59.8a2.86,2.86,0,0,0-.6,2.2Zm6.9-3.2L43.8,65a4,4,0,0,0,2.6.6,3.23,3.23,0,0,0,2-1.4,3.81,3.81,0,0,0,.8-1.7,2.06,2.06,0,0,0-.3-1.5l1.4-.7a4.49,4.49,0,0,1,.4,2.3,5.08,5.08,0,0,1-1.1,2.5,4.7,4.7,0,0,1-3.3,2.1A5.51,5.51,0,0,1,42.4,66,5.54,5.54,0,0,1,40,62.6a4.19,4.19,0,0,1,.8-3.6,4.53,4.53,0,0,1,4.3-1.9,6.71,6.71,0,0,1,2.3,1A5.5,5.5,0,0,1,48.3,58.8Z" transform="translate(0 -0.3)"/><path class="a" d="M55.4,54.2a1.75,1.75,0,0,0-.6-1.7l-1.1-.9-1.1,2a4.79,4.79,0,0,0-.7,2,1.3,1.3,0,0,0,.5,1.3,1.09,1.09,0,0,0,1.1.2,3.13,3.13,0,0,0,1.1-.8,4.85,4.85,0,0,0,.8-2.1Zm3-2.9.9.9a3.88,3.88,0,0,1-.6,1.1,1.64,1.64,0,0,1-1.1.7,1.59,1.59,0,0,1-1.3-.3,2.77,2.77,0,0,1,0,1.8,5.56,5.56,0,0,1-.9,1.7,4.53,4.53,0,0,1-2.1,1.5,2.47,2.47,0,0,1-2.2-.5,2.72,2.72,0,0,1-.9-2.1,6.3,6.3,0,0,1,1-3l1.4-2.4-.4-.4a2.16,2.16,0,0,0-1.7-.5,2.34,2.34,0,0,0-1.6,1,2.87,2.87,0,0,0-.3,3.5l-1.5.4a3.72,3.72,0,0,1-.5-2.3,4.72,4.72,0,0,1,1.1-2.5,4.36,4.36,0,0,1,2.5-1.7,3,3,0,0,1,2.7.8l3.9,3.2a.76.76,0,0,0,.5.2.85.85,0,0,0,.5-.3A1.41,1.41,0,0,0,58.4,51.3Z" transform="translate(0 -0.3)"/><path class="a" d="M59.9,47.6a1.39,1.39,0,0,0,1,.5,1,1,0,0,0,.8-.5c.2-.2.3-.4.5-.6s.2-.5.3-.7l1,1.3a3.53,3.53,0,0,1-.8,1.3,2.4,2.4,0,0,1-1.7.9,3.38,3.38,0,0,1-1.9-.9l-9.2-8.3L51,39.4Z" transform="translate(0 -0.3)"/><path class="a" d="M700.9,52.7a5.69,5.69,0,0,1-2.9-1.9,7.3,7.3,0,0,1-1.6-3,5,5,0,0,1,.4-3.2,9.48,9.48,0,0,1,5.5-4.9,6.16,6.16,0,0,1,3.3,0,7,7,0,0,1,4.4,4.9,5.14,5.14,0,0,1-.4,3l-1.6-.7a4.19,4.19,0,0,0,.5-2.2,3.48,3.48,0,0,0-1-2,4.87,4.87,0,0,0-2.1-1.4,5.28,5.28,0,0,0-2.5,0,6.81,6.81,0,0,0-2.6,1.5,6.15,6.15,0,0,0-2.2,3.6,3.86,3.86,0,0,0,1.1,3.4,4.07,4.07,0,0,0,2,1.4,3.66,3.66,0,0,0,2.5-.3l.6,1.6a5.66,5.66,0,0,1-3.4.2" transform="translate(0 -0.3)"/><path class="a" d="M710.7,53.3a4.93,4.93,0,0,0-4.5,3.5,3.31,3.31,0,0,0,2.8,3.8h.2a4.93,4.93,0,0,0,4.5-3.5,3.31,3.31,0,0,0-2.8-3.8h-.2m4.6,4.2a6.42,6.42,0,0,1-6.2,4.8,5.46,5.46,0,0,1-4.5-5.8,6.42,6.42,0,0,1,6.2-4.8,5.46,5.46,0,0,1,4.5,5.8" transform="translate(0 -0.3)"/><path class="a" d="M726.4,72a3.08,3.08,0,0,1-.3,1.9,4.13,4.13,0,0,1-1.5,1.7l-5.5,3.6-.9-1.4,5.4-3.5a2.62,2.62,0,0,0,1.3-1.6,2.32,2.32,0,0,0-.4-1.8,3.05,3.05,0,0,0-2.8-1.3,4.49,4.49,0,0,0-1.8.7l-4.7,3.1-.9-1.4,5.4-3.5a2.62,2.62,0,0,0,1.3-1.6,2.32,2.32,0,0,0-.4-1.8,3.46,3.46,0,0,0-1.1-1,2.32,2.32,0,0,0-1.6-.3,4.38,4.38,0,0,0-1.9.7l-4.6,3-.9-1.4,8.6-5.6.8,1.2-1.3,1a4.06,4.06,0,0,1,1.9.4,3.53,3.53,0,0,1,1.4,1.3,3.72,3.72,0,0,1,.7,2,2.88,2.88,0,0,1-.5,2,3.19,3.19,0,0,1,2.1.4,5.72,5.72,0,0,1,1.6,1.5,4.92,4.92,0,0,1,.6,1.7" transform="translate(0 -0.3)"/><path class="a" d="M733.7,84.6l-9,4.9-.7-1.3,1.3-.8A3.66,3.66,0,0,1,722,85a4,4,0,0,1-.5-2.8,3.78,3.78,0,0,1,2-2.3l5.9-3.2.8,1.5-5.5,3a3.12,3.12,0,0,0-1.6,1.6,2.59,2.59,0,0,0,.3,1.9,3.07,3.07,0,0,0,4.1,1.5c.2-.1.3-.2.5-.3l4.9-2.7Z" transform="translate(0 -0.3)"/><path class="a" d="M737.9,95.5a3.68,3.68,0,0,1-2.2,2.2l-6,2.8L729,99l5.4-2.5a3.53,3.53,0,0,0,1.8-1.6,2.77,2.77,0,0,0-.1-2,2.94,2.94,0,0,0-1-1.2,3.82,3.82,0,0,0-1.6-.6,4.48,4.48,0,0,0-2,.4l-4.9,2.3-.7-1.5,9.3-4.3.6,1.3-1.4.7a2.87,2.87,0,0,1,1.8.7,4.53,4.53,0,0,1,1.3,1.7,3.81,3.81,0,0,1,.4,3.1" transform="translate(0 -0.3)"/><path class="a" d="M742.6,98.5a1.33,1.33,0,1,1,.8,1.7c-.4-.1-.6-.4-.8-.8a.75.75,0,0,1,0-.9Zm-11,6.3-.6-1.5,9.5-3.9.6,1.5Z" transform="translate(0 -0.3)"/><path class="a" d="M744.4,111.1a4.47,4.47,0,0,1-1.3,2.2l-1.2-1.2a2.58,2.58,0,0,0,1-3.2,2.85,2.85,0,0,0-1.8-1.9,5.35,5.35,0,0,0-5.4,1.9,3,3,0,0,0-.2,2.6,2.76,2.76,0,0,0,1.2,1.6,2.83,2.83,0,0,0,1.8.4v1.6a4.7,4.7,0,0,1-2.6-.8,5.21,5.21,0,0,1-1.6-6.2,6.5,6.5,0,0,1,7.4-2.6,5,5,0,0,1,2.6,2.9,6.16,6.16,0,0,1,.1,2.7" transform="translate(0 -0.3)"/><path class="a" d="M739.7,122.9a1.74,1.74,0,0,0,1.8.4l1.4-.4-1.1-2.1a4.63,4.63,0,0,0-1.3-1.8,1.31,1.31,0,0,0-1.3-.3,1.14,1.14,0,0,0-.8.7,2.2,2.2,0,0,0,.1,1.4,4,4,0,0,0,1.2,2.1Zm.7,4.1-1.3.3a3.7,3.7,0,0,1-.5-1.1,2.85,2.85,0,0,1,0-1.3,1.79,1.79,0,0,1,1-.9,3.07,3.07,0,0,1-1.5-1,5.56,5.56,0,0,1-.9-1.7,3.87,3.87,0,0,1,0-2.6,2.34,2.34,0,0,1,1.7-1.5,2.44,2.44,0,0,1,2.2.4,6.93,6.93,0,0,1,2,2.5l1.2,2.5.5-.2a1.93,1.93,0,0,0,1.4-1.1,2.51,2.51,0,0,0,.1-1.9,3,3,0,0,0-2.7-2.3l.5-1.4a3.21,3.21,0,0,1,2.2,1,5,5,0,0,1,1.4,2.3,4.15,4.15,0,0,1,0,3.1,3.09,3.09,0,0,1-2.2,1.8l-4.8,1.4a.85.85,0,0,0-.5.3.64.64,0,0,0,0,.6A1.88,1.88,0,0,0,740.4,127Z" transform="translate(0 -0.3)"/><path class="a" d="M750.6,133.7a5.37,5.37,0,0,1-1.6,2.1l-1.1-1.4a2.69,2.69,0,0,0,1.4-3.1,3,3,0,0,0-1.5-2.1,5.35,5.35,0,0,0-5.6,1.3,3.36,3.36,0,0,0-.5,2.6,2.75,2.75,0,0,0,2.7,2.3l-.2,1.6a4.72,4.72,0,0,1-2.5-1.1,4.8,4.8,0,0,1-1.4-2.5,4.54,4.54,0,0,1,.6-3.9,6.48,6.48,0,0,1,7.6-1.7,4.54,4.54,0,0,1,2.2,3.2,4.93,4.93,0,0,1-.1,2.7" transform="translate(0 -0.3)"/><path class="a" d="M754.2,137.6a1.32,1.32,0,1,1,.5,1.8,1.15,1.15,0,0,1-.6-.9,1,1,0,0,1,.1-.9Zm-12,3.9-.3-1.6L752,138l.3,1.6Z" transform="translate(0 -0.3)"/><path class="a" d="M758.9,149.3l-3.7-1.5-.2-1.3,3.6,1.1Zm-7.9-3.7a5.2,5.2,0,0,0-5.7.8,3.33,3.33,0,0,0,.5,4.7l.1.1a5.2,5.2,0,0,0,5.7-.8,3.33,3.33,0,0,0-.5-4.7A.1.1,0,0,1,751,145.6Zm1.8,5.8a6.51,6.51,0,0,1-7.8,1.1,5.42,5.42,0,0,1-1-7.2,6.51,6.51,0,0,1,7.8-1.1A5.31,5.31,0,0,1,752.8,151.4Z" transform="translate(0 -0.3)"/><path class="a" d="M754.3,163.6a3.72,3.72,0,0,1-2.8,1.3l-6.5.5-.1-1.6,6-.4a3.52,3.52,0,0,0,2.3-.9,2.21,2.21,0,0,0,.6-1.9,3,3,0,0,0-.5-1.5A2.37,2.37,0,0,0,752,158a3.73,3.73,0,0,0-2.1-.3l-5.4.4-.1-1.6,10.2-.7.1,1.5-1.6.2a3.74,3.74,0,0,1,1.5,1.3,6.64,6.64,0,0,1,.6,2,4.68,4.68,0,0,1-.9,2.8" transform="translate(0 -0.3)"/><path class="a" d="M753.4,177.8a3.86,3.86,0,0,0-2.2-1.1l-.2,6.2a3.52,3.52,0,0,0,2.3-.9,2.66,2.66,0,0,0,.9-2,3.49,3.49,0,0,0-.8-2.2Zm-3.9,6.6.2-7.7a3.49,3.49,0,0,0-2.4,1,3.17,3.17,0,0,0-.9,2.3,6.28,6.28,0,0,0,.3,1.9,1.82,1.82,0,0,0,1.1,1l-.7,1.4a4.36,4.36,0,0,1-1.6-1.7,4.68,4.68,0,0,1-.5-2.6,4.75,4.75,0,0,1,1.5-3.6,5.51,5.51,0,0,1,3.9-1.2,5.68,5.68,0,0,1,3.9,1.4,4.39,4.39,0,0,1,1.3,3.6,4.51,4.51,0,0,1-.7,2.5,3.35,3.35,0,0,1-1.8,1.5,7,7,0,0,1-2.5.5A2,2,0,0,0,749.5,184.4Z" transform="translate(0 -0.3)"/><path class="a" d="M753.6,195.5a4,4,0,0,1-3,.9l-6.5-.6.1-1.6,6,.5a3.41,3.41,0,0,0,2.4-.5,2.83,2.83,0,0,0,.9-1.8,4.4,4.4,0,0,0-.2-1.6,2.76,2.76,0,0,0-1.1-1.3,3.61,3.61,0,0,0-2-.6l-5.4-.5.1-1.6,10.2.9-.1,1.5h-1.6a2.89,2.89,0,0,1,1.2,1.5,7.61,7.61,0,0,1,.3,2.1,5.26,5.26,0,0,1-1.3,2.7" transform="translate(0 -0.3)"/><path class="a" d="M742.2,212.2a3.4,3.4,0,0,1-.4-2.8,3.52,3.52,0,0,1,1-1.9,2.44,2.44,0,0,1,2.2-.4l6.2,1.1.4-2,1.4.2-.4,2,2.4.4.2,1.7-2.9-.5-.7,3.7-1.4-.2.7-3.7-5.9-1.1a1.72,1.72,0,0,0-1.2.2,2.07,2.07,0,0,0-.6,1,2.56,2.56,0,0,0,.4,1.9Z" transform="translate(0 -0.3)"/><path class="a" d="M753.3,216.7a1.36,1.36,0,1,1,1.6,2.2,1.33,1.33,0,0,1-1.9-.3,1.39,1.39,0,0,1-.2-1.1,1.58,1.58,0,0,1,.5-.8Zm-12.6-1,.3-1.6,10,2.2-.3,1.6Z" transform="translate(0 -0.3)"/><path class="a" d="M747.5,223a3.75,3.75,0,0,0-1.9-1.6l-1.6,6a3.93,3.93,0,0,0,2.4-.3,2.69,2.69,0,0,0,1.3-1.8,3.6,3.6,0,0,0-.2-2.3Zm-5.3,5.5,2-7.5a3.39,3.39,0,0,0-2.6.4,3.52,3.52,0,0,0-1.4,2,4.08,4.08,0,0,0-.1,1.9,2.22,2.22,0,0,0,.8,1.3l-1,1.1a3.74,3.74,0,0,1-1.2-2,5.76,5.76,0,0,1,2.4-5.9,5.83,5.83,0,0,1,4.1-.3,6.22,6.22,0,0,1,3.5,2.2,4.59,4.59,0,0,1,.5,3.8,4.77,4.77,0,0,1-1.2,2.2,4.27,4.27,0,0,1-2.1,1.1,5.3,5.3,0,0,1-2.5-.1A2.17,2.17,0,0,1,742.2,228.5Z" transform="translate(0 -0.3)"/><path class="a" d="M742.1,246.1a3.15,3.15,0,0,1-1.7.9,4.16,4.16,0,0,1-2.2-.2l-6.2-2.2.5-1.5,6,2.1a2.56,2.56,0,0,0,2.1,0,2.29,2.29,0,0,0,1.2-1.5,3,3,0,0,0-.6-3,3.36,3.36,0,0,0-1.6-1l-5.3-1.9.5-1.5,6,2.1a2.56,2.56,0,0,0,2.1,0,2.29,2.29,0,0,0,1.2-1.5,3.06,3.06,0,0,0-.6-2.9,4.52,4.52,0,0,0-1.7-1.1l-5.2-1.8.5-1.5,9.7,3.4-.5,1.4-1.5-.4a3.7,3.7,0,0,1,.8,1.8,4.13,4.13,0,0,1-.2,1.9,3.6,3.6,0,0,1-1.2,1.8,3.38,3.38,0,0,1-1.9.9,3.38,3.38,0,0,1,.9,1.9,4.87,4.87,0,0,1-.2,2.1,3.15,3.15,0,0,1-.9,1.7" transform="translate(0 -0.3)"/><path class="a" d="M729.9,254.8a5.07,5.07,0,0,0,5.2,2.3,2.72,2.72,0,0,0,1.9-1.7,3,3,0,0,0,0-2.6,3.75,3.75,0,0,0-2.2-1.9l-.2-.1a4.14,4.14,0,0,0-2.9-.3,3,3,0,0,0-1.9,1.7,3.34,3.34,0,0,0,.1,2.6Zm5.7,3.9a6.58,6.58,0,0,1-7.1-3.2,4.36,4.36,0,0,1,.1-3.7,4,4,0,0,1,1.3-1.6,2.87,2.87,0,0,1,1.8-.7l-5.4-2.4.7-1.5,13.3,5.9-.6,1.3-1.7-.6a3.16,3.16,0,0,1,.7,1.9,4.31,4.31,0,0,1-.4,2.2A4.59,4.59,0,0,1,735.6,258.7Z" transform="translate(0 -0.3)"/><path class="a" d="M731.8,264a5.29,5.29,0,0,0-5.1-2.7,3.39,3.39,0,0,0-2.3,4.2c0,.1,0,.1.1.2a5.29,5.29,0,0,0,5.1,2.7,3.39,3.39,0,0,0,2.3-4.2.31.31,0,0,1-.1-.2m-1.9,5.8a6.32,6.32,0,0,1-6.9-3.7,5.36,5.36,0,0,1,3.4-6.4,6.32,6.32,0,0,1,6.9,3.7,5.36,5.36,0,0,1-3.4,6.4" transform="translate(0 -0.3)"/><path class="a" d="M721.7,285.6l-1.2-1.1a2.58,2.58,0,0,0,.9-.9,2.64,2.64,0,0,0,0-2.8,3.25,3.25,0,0,0-1.3-1.3l-4.6-3,.9-1.4,8.6,5.6-.7,1.1-1.5-.7a3.31,3.31,0,0,1-.2,3.8c-.3.2-.6.5-.9.7" transform="translate(0 -0.3)"/><path class="a" d="M717.5,288a4,4,0,0,0-1.2-2.1l-3.7,5a3.87,3.87,0,0,0,2.4.5,2.76,2.76,0,0,0,1.9-1.2,3,3,0,0,0,.6-2.2Zm-6.9,3.2,4.5-6.3a4,4,0,0,0-2.6-.6,3.23,3.23,0,0,0-2,1.4,3.81,3.81,0,0,0-.8,1.7,2.06,2.06,0,0,0,.3,1.5l-1.4.7a4.49,4.49,0,0,1-.4-2.3,5.08,5.08,0,0,1,1.1-2.5,4.7,4.7,0,0,1,3.3-2.1,5.51,5.51,0,0,1,3.9,1.2,5.34,5.34,0,0,1,2.4,3.3,4.73,4.73,0,0,1-5.2,5.6,6.71,6.71,0,0,1-2.3-1A3.28,3.28,0,0,1,710.6,291.2Z" transform="translate(0 -0.3)"/><path class="a" d="M703.6,295.7a1.75,1.75,0,0,0,.6,1.7l1.1.9,1.1-2a4.79,4.79,0,0,0,.7-2,1.3,1.3,0,0,0-.5-1.3,1.09,1.09,0,0,0-1.1-.2,3.13,3.13,0,0,0-1.1.8,4.19,4.19,0,0,0-.8,2.1m-3.1,2.9-.9-.9a3.88,3.88,0,0,1,.6-1.1,1.64,1.64,0,0,1,1.1-.7,1.59,1.59,0,0,1,1.3.3,2.78,2.78,0,0,1,0-1.8,5.56,5.56,0,0,1,.9-1.7,4.53,4.53,0,0,1,2.1-1.5,2.47,2.47,0,0,1,2.2.5,2.72,2.72,0,0,1,.9,2.1,6.3,6.3,0,0,1-1,3l-1.4,2.3.4.4a2.16,2.16,0,0,0,1.7.5,2.34,2.34,0,0,0,1.6-1,2.87,2.87,0,0,0,.3-3.5l1.5-.4a3.1,3.1,0,0,1,.4,2.3,4.72,4.72,0,0,1-1.1,2.5,4.36,4.36,0,0,1-2.5,1.7,3,3,0,0,1-2.7-.8l-3.9-3.2a.76.76,0,0,0-.5-.2.85.85,0,0,0-.5.3,4.38,4.38,0,0,0-.5.9" transform="translate(0 -0.3)"/><path class="a" d="M699,302.3a1.39,1.39,0,0,0-1-.5,1,1,0,0,0-.8.5c-.2.2-.3.4-.5.6s-.2.5-.3.7l-1-1.3a3.53,3.53,0,0,1,.8-1.3,2.4,2.4,0,0,1,1.7-.9,3.38,3.38,0,0,1,1.9.9l9.2,8.3-1.1,1.2Z" transform="translate(0 -0.3)"/></svg>